<svg width="38" height="38" viewBox="0 0 38 38" fill="none" xmlns="http://www.w3.org/2000/svg">
<g opacity="0.48">
<path fill-rule="evenodd" clip-rule="evenodd" d="M27.8469 27.7082C28.0524 27.5042 28.1552 27.4022 28.2266 27.3026C28.5911 26.7946 28.5911 26.1131 28.2266 25.6051C28.1552 25.5056 28.0524 25.4036 27.8469 25.1996L21.5277 18.9282L27.8469 12.6567C28.0524 12.4527 28.1552 12.3508 28.2266 12.2512C28.5911 11.7432 28.5911 11.0617 28.2266 10.5537C28.1552 10.4541 28.0524 10.3521 27.8469 10.1482C27.6414 9.94417 27.5386 9.84218 27.4383 9.77129C26.9264 9.40957 26.2397 9.40957 25.7278 9.77129C25.6275 9.84218 25.5248 9.94417 25.3192 10.1482L19 16.4196L12.6808 10.1482C12.4752 9.94417 12.3725 9.84218 12.2722 9.77129C11.7603 9.40957 11.0736 9.40957 10.5617 9.77129C10.4614 9.84218 10.3586 9.94417 10.1531 10.1482C9.94756 10.3521 9.84479 10.4541 9.77336 10.5537C9.40888 11.0617 9.40888 11.7432 9.77336 12.2512C9.84479 12.3508 9.94756 12.4527 10.1531 12.6567L16.4723 18.9282L10.1531 25.1996C9.94756 25.4036 9.84479 25.5056 9.77336 25.6051C9.40888 26.1131 9.40888 26.7946 9.77336 27.3026C9.84479 27.4022 9.94756 27.5042 10.1531 27.7082C10.3586 27.9121 10.4614 28.0141 10.5617 28.085C11.0736 28.4467 11.7603 28.4467 12.2722 28.085C12.3725 28.0141 12.4752 27.9121 12.6808 27.7082L19 21.4367L25.3192 27.7082C25.5248 27.9121 25.6275 28.0141 25.7278 28.085C26.2397 28.4467 26.9264 28.4467 27.4383 28.085C27.5386 28.0141 27.6414 27.9121 27.8469 27.7082Z" fill="#A7A9AC"/>
</g>
</svg>
