<svg width="27" height="27" viewBox="0 0 27 27" fill="none" xmlns="http://www.w3.org/2000/svg">
<rect x="0.5" y="0.5" width="25.996" height="25.996" rx="12.998" stroke="white"/>
<path d="M16.2931 8H11.7069C10.2143 8 9 9.21429 9 10.7069V15.2932C9 16.7857 10.2143 18 11.7069 18H16.2932C17.7857 18 19 16.7857 19 15.2932V10.7069C19 9.21429 17.7857 8 16.2931 8V8ZM14 15.7343C12.4923 15.7343 11.2657 14.5077 11.2657 13C11.2657 11.4923 12.4923 10.2657 14 10.2657C15.5077 10.2657 16.7343 11.4923 16.7343 13C16.7343 14.5077 15.5077 15.7343 14 15.7343V15.7343ZM16.7997 10.9105C16.3541 10.9105 15.9917 10.5481 15.9917 10.1026C15.9917 9.65703 16.3541 9.29455 16.7997 9.29455C17.2452 9.29455 17.6077 9.65703 17.6077 10.1026C17.6077 10.5481 17.2452 10.9105 16.7997 10.9105Z" fill="white"/>
<path d="M13.9999 10.8519C12.8155 10.8519 11.8518 11.8155 11.8518 13C11.8518 14.1844 12.8155 15.148 13.9999 15.148C15.1843 15.148 16.1479 14.1844 16.1479 13C16.1479 11.8155 15.1843 10.8519 13.9999 10.8519V10.8519Z" fill="white"/>
<path d="M16.7998 9.88086C16.6776 9.88086 16.5781 9.98035 16.5781 10.1026C16.5781 10.2248 16.6776 10.3243 16.7998 10.3243C16.9221 10.3243 17.0216 10.2249 17.0216 10.1026C17.0216 9.98027 16.9221 9.88086 16.7998 9.88086Z" fill="white"/>
</svg>
