<svg xmlns="http://www.w3.org/2000/svg" viewBox="0 0 204.24 273.32"><defs><style>.cls-1,.cls-2,.cls-3{fill:#e6e6e6;}.cls-2{fill-rule:evenodd;}.cls-3{opacity:0.5;}</style></defs><title>Asset 1</title><g id="Layer_2" data-name="Layer 2"><g id="Layer_1-2" data-name="Layer 1"><path class="cls-1" d="M63.75,218a3.28,3.28,0,0,0,.18.61,1.91,1.91,0,0,0,.3.52,1.48,1.48,0,0,0,1.16.5,1.35,1.35,0,0,0,.73-.19,1.69,1.69,0,0,0,.51-.52,2.9,2.9,0,0,0,.34-.73,8.06,8.06,0,0,0,.19-.88,7,7,0,0,0,.09-.91c0-.31,0-.59,0-.86H64v-2.19h3.32c0-.4,0-.82-.06-1.25a4.82,4.82,0,0,0-.25-1.19,2.42,2.42,0,0,0-.56-.9,1.3,1.3,0,0,0-1-.34,1.42,1.42,0,0,0-.72.16,1.33,1.33,0,0,0-.45.4,1.6,1.6,0,0,0-.24.53c0,.19-.07.39-.09.56l-2.29-.19A4.2,4.2,0,0,1,61.9,210a6.34,6.34,0,0,1,.37-.85,3.58,3.58,0,0,1,.36-.54l.2-.23a2.64,2.64,0,0,1,.6-.48,2.85,2.85,0,0,1,.64-.3,3.07,3.07,0,0,1,.67-.14,5,5,0,0,1,.67-.05,4.14,4.14,0,0,1,1.77.35,3.54,3.54,0,0,1,1.24.9,4.59,4.59,0,0,1,.8,1.29,8.78,8.78,0,0,1,.46,1.51,11.89,11.89,0,0,1,.2,1.56c0,.52.05,1,.05,1.43s0,1-.06,1.56a13.41,13.41,0,0,1-.23,1.67,8.27,8.27,0,0,1-.48,1.58,4.86,4.86,0,0,1-.82,1.34,3.71,3.71,0,0,1-1.24.93,3.84,3.84,0,0,1-1.73.35,4.94,4.94,0,0,1-1.28-.15,3.59,3.59,0,0,1-1-.42,2.82,2.82,0,0,1-.68-.6A3.49,3.49,0,0,1,62,220a4.26,4.26,0,0,1-.26-.73,4.62,4.62,0,0,1-.13-.69Z"/><path class="cls-1" d="M80.39,218.61a4.89,4.89,0,0,1-.15.7,4.16,4.16,0,0,1-.28.74,3.78,3.78,0,0,1-.45.7,2.72,2.72,0,0,1-.66.6,3.63,3.63,0,0,1-.91.41,4.32,4.32,0,0,1-1.2.15,4,4,0,0,1-1.6-.29,3.7,3.7,0,0,1-1.21-.8,4.36,4.36,0,0,1-.84-1.21,8.47,8.47,0,0,1-.54-1.49,12.26,12.26,0,0,1-.28-1.68,17,17,0,0,1-.09-1.75c0-.47,0-1,0-1.5a11.25,11.25,0,0,1,.22-1.62,8,8,0,0,1,.47-1.55,4.42,4.42,0,0,1,.81-1.32,3.8,3.8,0,0,1,1.24-.91,4.17,4.17,0,0,1,1.77-.35,4.31,4.31,0,0,1,.93.09,4.19,4.19,0,0,1,.73.23,3.35,3.35,0,0,1,.54.31c.15.12.27.23.38.33a2.77,2.77,0,0,1,.37.44,3.59,3.59,0,0,1,.58,1.31,3.46,3.46,0,0,1,.1.87v.13l-2.23.2a2.41,2.41,0,0,0-.13-.68,1.52,1.52,0,0,0-.32-.52,1.45,1.45,0,0,0-.47-.34,1.58,1.58,0,0,0-.58-.11,1.17,1.17,0,0,0-.73.22,1.77,1.77,0,0,0-.51.6,3.64,3.64,0,0,0-.31.88,8.84,8.84,0,0,0-.17,1q0,.56-.06,1.11c0,.37,0,.73,0,1.07s0,.79,0,1.19,0,.78.07,1.15a8.1,8.1,0,0,0,.17,1.06,3.27,3.27,0,0,0,.33.85,1.59,1.59,0,0,0,.52.57,1.42,1.42,0,0,0,.78.21,1.12,1.12,0,0,0,.43-.08,1.26,1.26,0,0,0,.45-.27,2.14,2.14,0,0,0,.39-.51,2.58,2.58,0,0,0,.27-.8Z"/><polygon class="cls-1" points="90.16 207.83 90.16 210.02 87.05 210.02 87.05 221.53 84.49 221.53 84.49 210.02 81.38 210.02 81.38 207.83 90.16 207.83"/><path class="cls-1" d="M96.48,215.9l-1-5.57a1.93,1.93,0,0,0,0-.2s0-.13,0-.22,0-.22,0-.4,0-.42-.09-.74c0,.24,0,.44-.07.61s0,.33-.07.46,0,.24-.07.33,0,.18-.06.26l-.92,5.47Zm.84-8.25,2.7,13.88H97.5l-.65-3.44H93.71l-.65,3.44H90.54l2.68-13.88Z"/><path class="cls-1" d="M107.68,217.6h.2a1.73,1.73,0,0,0,1.09-.34,2.32,2.32,0,0,0,.65-.84,3.43,3.43,0,0,0,.32-1.06,6.61,6.61,0,0,0,.09-1,4,4,0,0,0-.6-2.44,2,2,0,0,0-1.71-.79h0Zm-2.24-6.47h0a2,2,0,0,0-.66.1,2.19,2.19,0,0,0-.55.28,2.27,2.27,0,0,0-.43.39,2.93,2.93,0,0,0-.3.45,3.44,3.44,0,0,0-.25.75,5.36,5.36,0,0,0-.12,1.26,5.29,5.29,0,0,0,0,.66,4.51,4.51,0,0,0,.12.72,3.85,3.85,0,0,0,.24.7,2.51,2.51,0,0,0,.4.6,1.69,1.69,0,0,0,.57.42,1.73,1.73,0,0,0,.78.16h.2Zm2.4-3.77v1.89a5.68,5.68,0,0,1,1.34.22,4.94,4.94,0,0,1,1,.41,4,4,0,0,1,.7.46,4.64,4.64,0,0,1,.44.42,4.26,4.26,0,0,1,.6.83,4.34,4.34,0,0,1,.4.88,4.83,4.83,0,0,1,.21.93,7.71,7.71,0,0,1,0,1.92,5.1,5.1,0,0,1-.21.94,4.68,4.68,0,0,1-.4.89,4.2,4.2,0,0,1-.6.82,4.64,4.64,0,0,1-.44.42,4,4,0,0,1-.7.46,5.59,5.59,0,0,1-1,.41,5.68,5.68,0,0,1-1.34.22v2.05h-2.56v-2.05a5.41,5.41,0,0,1-2.33-.63,3.79,3.79,0,0,1-.71-.46,4.64,4.64,0,0,1-.44-.42,4.39,4.39,0,0,1-1-1.71,6.43,6.43,0,0,1-.28-1.9,6.36,6.36,0,0,1,.28-1.89,4.32,4.32,0,0,1,1-1.71,4.64,4.64,0,0,1,.44-.42,3.79,3.79,0,0,1,.71-.46,4.94,4.94,0,0,1,1-.41,5.59,5.59,0,0,1,1.33-.22v-1.89Z"/><polygon class="cls-1" points="115.35 207.83 122.69 207.83 122.69 210.02 117.91 210.02 117.91 213.36 121.33 213.36 121.33 215.55 117.91 215.55 117.91 219.34 122.91 219.34 122.91 221.53 115.35 221.53 115.35 207.83"/><polygon class="cls-1" points="133.12 207.83 133.12 210.02 130.01 210.02 130.01 221.53 127.45 221.53 127.45 210.02 124.35 210.02 124.35 207.83 133.12 207.83"/><path class="cls-1" d="M139.44,215.9l-1-5.57c0-.08,0-.15,0-.2a1,1,0,0,1,0-.22,4,4,0,0,1-.06-.4c0-.17,0-.42-.08-.74,0,.24-.06.44-.08.61s0,.33-.07.46-.05.24-.07.33a1.72,1.72,0,0,1-.05.26l-.92,5.47Zm.84-8.25,2.7,13.88h-2.52l-.64-3.44h-3.14l-.65,3.44h-2.52l2.68-13.88Z"/><path class="cls-1" d="M1.76,237.41H3.64l-1.33,3.64,1.33,3.65H1.76L0,241.05Zm3.36,0H7l-1.33,3.64L7,244.7H5.12l-1.76-3.65Z"/><path class="cls-1" d="M17.93,243.16c0,.22-.08.45-.15.7a4.06,4.06,0,0,1-.28.73,3.85,3.85,0,0,1-.45.71,2.68,2.68,0,0,1-.66.59,3.64,3.64,0,0,1-.91.42,4.32,4.32,0,0,1-1.2.15,4,4,0,0,1-1.6-.29,3.7,3.7,0,0,1-1.21-.8,4.51,4.51,0,0,1-.84-1.21,7.83,7.83,0,0,1-.54-1.5A12.37,12.37,0,0,1,9.81,241a17.09,17.09,0,0,1-.09-1.75c0-.47,0-1,0-1.51a11.31,11.31,0,0,1,.22-1.61,8.27,8.27,0,0,1,.47-1.56,4.5,4.5,0,0,1,.81-1.31,3.72,3.72,0,0,1,1.24-.92,4.8,4.8,0,0,1,2.7-.25,4.19,4.19,0,0,1,.73.23,2.74,2.74,0,0,1,.54.31,3.22,3.22,0,0,1,.38.33,2.77,2.77,0,0,1,.37.44,3.27,3.27,0,0,1,.34.58,3.68,3.68,0,0,1,.24.73,3.35,3.35,0,0,1,.1.87v.13l-2.23.2a2.05,2.05,0,0,0-.14-.68,1.41,1.41,0,0,0-.31-.52,1.32,1.32,0,0,0-.47-.34,1.4,1.4,0,0,0-.58-.12,1.18,1.18,0,0,0-.73.23,1.67,1.67,0,0,0-.51.6,3.5,3.5,0,0,0-.31.88,6.77,6.77,0,0,0-.17,1.05q0,.54-.06,1.11c0,.37,0,.73,0,1.06s0,.8,0,1.19,0,.79.07,1.16a6.58,6.58,0,0,0,.17,1,3.14,3.14,0,0,0,.33.85,1.54,1.54,0,0,0,.52.58,1.41,1.41,0,0,0,1.21.13,1.29,1.29,0,0,0,.45-.28,2.28,2.28,0,0,0,.39-.5,2.68,2.68,0,0,0,.27-.8Z"/><path class="cls-1" d="M25.1,240.44l-1-5.56-.05-.2c0-.06,0-.13,0-.22s0-.23-.06-.4,0-.42-.08-.74c0,.23-.05.43-.08.61a4.3,4.3,0,0,1-.07.45c0,.13,0,.24-.06.34l-.06.26-.92,5.46Zm.83-8.24,2.7,13.87H26.12l-.65-3.44H22.33l-.65,3.44H19.16l2.68-13.87Z"/><polygon class="cls-1" points="29.45 246.07 32.75 238.95 29.59 232.38 32.3 232.38 34.14 236.33 35.78 232.38 38.32 232.38 35.37 238.75 38.97 246.07 36.19 246.07 34.04 241.36 31.91 246.07 29.45 246.07"/><path class="cls-1" d="M45.58,240.44l-1-5.56c0-.08,0-.15,0-.2a1.09,1.09,0,0,1,0-.22c0-.1,0-.23-.06-.4s-.05-.42-.08-.74c0,.23-.06.43-.08.61s0,.32-.07.45,0,.24-.07.34a2,2,0,0,1,0,.26l-.93,5.46Zm.84-8.24,2.7,13.87H46.6L46,242.63H42.82l-.65,3.44H39.65l2.68-13.87Z"/><path class="cls-1" d="M59.32,246.08H56.76V234.57H55.39c0,.06,0,.19,0,.37s-.05.4-.08.65-.06.52-.09.82l-.12.87c0,.28-.07.56-.1.82s-.06.48-.08.67c-.09.66-.18,1.24-.26,1.72s-.16.89-.24,1.23-.13.63-.19.85-.12.41-.17.56-.13.38-.22.6a5.3,5.3,0,0,1-.33.68,4.47,4.47,0,0,1-.51.68,3.77,3.77,0,0,1-.71.59,4,4,0,0,1-1,.42,4.66,4.66,0,0,1-1.26.18l-.31-2.15h.05a1.81,1.81,0,0,0,.85-.18,1.88,1.88,0,0,0,.58-.45,2.4,2.4,0,0,0,.39-.57,4.59,4.59,0,0,0,.22-.56,9,9,0,0,0,.29-1.08c.09-.43.18-.87.26-1.33s.16-.89.23-1.31l.15-1c0-.22.07-.46.1-.75s.07-.58.1-.89.08-.65.11-1,.08-.65.11-1,.06-.62.09-.91.06-.54.08-.76h6Z"/><path class="cls-1" d="M65.56,232.38v3.87q0,.45,0,1c0,.34,0,.75,0,1.21s-.06,1-.11,1.59-.08,1.31-.14,2.11c.09-.26.19-.53.29-.83l.31-.87c.11-.28.21-.56.32-.82s.18-.48.26-.67l2.77-6.55h2.54v13.69H69.16v-3.89c0-.3,0-.62,0-1s0-.75.06-1.21.06-1,.1-1.59.09-1.3.15-2.11q-.06.15-.15.42l-.2.56c-.07.21-.15.42-.23.64l-.23.63c-.08.21-.14.39-.2.56s-.12.29-.16.39l-2.79,6.56H63V232.38Z"/><polygon class="cls-1" points="77.96 232.38 77.96 237.93 80.62 237.93 80.62 232.38 83.18 232.38 83.18 246.07 80.62 246.07 80.62 240.12 77.96 240.12 77.96 246.07 75.4 246.07 75.4 232.38 77.96 232.38"/><path class="cls-1" d="M94.35,243.16a5.2,5.2,0,0,1-.15.7,4.06,4.06,0,0,1-.28.73,3.85,3.85,0,0,1-.45.71,2.68,2.68,0,0,1-.66.59,3.64,3.64,0,0,1-.91.42,4.25,4.25,0,0,1-1.19.15,4,4,0,0,1-1.61-.29,3.81,3.81,0,0,1-1.21-.8,4.51,4.51,0,0,1-.84-1.21,7.82,7.82,0,0,1-.53-1.5,11,11,0,0,1-.29-1.67,17.09,17.09,0,0,1-.09-1.75c0-.47,0-1,.06-1.51a11.27,11.27,0,0,1,.21-1.61,9.07,9.07,0,0,1,.47-1.56,4.5,4.5,0,0,1,.81-1.31,3.76,3.76,0,0,1,1.25-.92,4.77,4.77,0,0,1,2.69-.25,3.93,3.93,0,0,1,.73.23,2.74,2.74,0,0,1,.54.31,3.22,3.22,0,0,1,.38.33,3.45,3.45,0,0,1,.38.44A4,4,0,0,1,94,234a4.45,4.45,0,0,1,.25.73,3.88,3.88,0,0,1,.09.87v.13l-2.23.2a2.06,2.06,0,0,0-.13-.68,1.43,1.43,0,0,0-.32-.52,1.32,1.32,0,0,0-.47-.34,1.37,1.37,0,0,0-.58-.12,1.2,1.2,0,0,0-.73.23,1.77,1.77,0,0,0-.51.6,3.94,3.94,0,0,0-.31.88,8.22,8.22,0,0,0-.17,1.05q0,.54-.06,1.11c0,.37,0,.73,0,1.06s0,.8,0,1.19a10.84,10.84,0,0,0,.06,1.16,10,10,0,0,0,.17,1,3.5,3.5,0,0,0,.33.85,1.54,1.54,0,0,0,.52.58,1.42,1.42,0,0,0,.78.21,1.35,1.35,0,0,0,.43-.08,1.29,1.29,0,0,0,.45-.28,2.28,2.28,0,0,0,.39-.5,2.68,2.68,0,0,0,.27-.8Z"/><path class="cls-1" d="M97,246.07V232.38h2.55v5.46h.63a1.3,1.3,0,0,0,.59-.11,1.12,1.12,0,0,0,.41-.3,1.68,1.68,0,0,0,.27-.45,5.41,5.41,0,0,0,.19-.53l.49-1.72a4.36,4.36,0,0,1,.41-1,3.17,3.17,0,0,1,.64-.8,2.79,2.79,0,0,1,.86-.52,3.25,3.25,0,0,1,1.12-.18h.25a1.23,1.23,0,0,1,.27,0l.18,2.1h-.2a1.28,1.28,0,0,0-.48.09,1,1,0,0,0-.4.28,2,2,0,0,0-.35.52,4.68,4.68,0,0,0-.29.81l-.31,1.11a4.33,4.33,0,0,1-.27.73,2.88,2.88,0,0,1-.32.5,1.34,1.34,0,0,1-.36.32,1.81,1.81,0,0,1-.4.18,3.07,3.07,0,0,1,.42.28,2.08,2.08,0,0,1,.38.4,2.74,2.74,0,0,1,.31.54,6.47,6.47,0,0,1,.24.74l.33,1.26c.08.28.15.54.2.79a1.81,1.81,0,0,0,.24.64,1.27,1.27,0,0,0,.5.44,2.36,2.36,0,0,0,.95.16h.12l-.33,2.1-.21,0h-.22a3.57,3.57,0,0,1-1.53-.29,3.14,3.14,0,0,1-1-.7,2.87,2.87,0,0,1-.53-.87,7.85,7.85,0,0,1-.26-.78l-.47-1.83c-.07-.28-.14-.52-.2-.74a1.93,1.93,0,0,0-.25-.54.94.94,0,0,0-.4-.34,1.41,1.41,0,0,0-.63-.12h-.63v6Z"/><path class="cls-1" d="M111.2,232.38v3.87c0,.3,0,.62,0,1s0,.75-.06,1.21-.06,1-.1,1.59-.09,1.31-.14,2.11c.08-.26.18-.53.28-.83s.21-.58.32-.87.2-.56.31-.82.18-.48.27-.67l2.76-6.55h2.54v13.69H114.8v-3.89c0-.3,0-.62,0-1s0-.75.06-1.21.06-1,.1-1.59.09-1.3.15-2.11q-.06.15-.15.42l-.2.56c-.07.21-.15.42-.23.64l-.23.63c-.07.21-.14.39-.2.56s-.12.29-.16.39l-2.78,6.56h-2.54V232.38Z"/><polygon class="cls-1" points="121.04 232.38 128.37 232.38 128.37 234.57 123.6 234.57 123.6 237.91 127.02 237.91 127.02 240.09 123.6 240.09 123.6 243.88 128.6 243.88 128.6 246.07 121.04 246.07 121.04 232.38"/><path class="cls-1" d="M145.89,240.44l-1-5.56a1.93,1.93,0,0,0,0-.2c0-.06,0-.13,0-.22s0-.23,0-.4-.05-.42-.09-.74c0,.23-.05.43-.07.61s-.05.32-.07.45,0,.24-.07.34l-.06.26-.92,5.46Zm.84-8.24,2.7,13.87h-2.52l-.65-3.44h-3.14l-.65,3.44H140l2.67-13.87Z"/><path class="cls-1" d="M159.62,246.08h-2.55V234.57H155.7c0,.06,0,.19,0,.37s0,.4-.08.65-.06.52-.1.82-.07.58-.11.87-.07.56-.1.82-.06.48-.08.67c-.1.66-.18,1.24-.27,1.72s-.16.89-.23,1.23-.14.63-.2.85-.12.41-.16.56-.14.38-.22.6a4.31,4.31,0,0,1-.34.68,3.82,3.82,0,0,1-.5.68,3.77,3.77,0,0,1-.71.59,3.86,3.86,0,0,1-1,.42,4.64,4.64,0,0,1-1.25.18l-.31-2.15h.05a1.84,1.84,0,0,0,.85-.18,1.88,1.88,0,0,0,.58-.45,2.1,2.1,0,0,0,.38-.57,4.76,4.76,0,0,0,.23-.56c.1-.29.19-.65.29-1.08s.18-.87.26-1.33.16-.89.22-1.31.12-.75.16-1,.07-.46.1-.75.06-.58.1-.89.08-.65.11-1,.07-.65.11-1,.06-.62.09-.91.06-.54.08-.76h6Z"/><path class="cls-1" d="M171.25,246.08h-2.56V234.57h-1.37c0,.06,0,.19,0,.37s-.05.4-.08.65-.06.52-.1.82-.07.58-.11.87-.07.56-.1.82-.06.48-.08.67c-.09.66-.18,1.24-.27,1.72s-.16.89-.23,1.23-.13.63-.19.85-.12.41-.17.56-.14.38-.22.6a5.3,5.3,0,0,1-.33.68,4.47,4.47,0,0,1-.51.68,3.77,3.77,0,0,1-.71.59,4,4,0,0,1-1,.42,4.78,4.78,0,0,1-1.26.18l-.31-2.15h.05a1.81,1.81,0,0,0,.85-.18,1.88,1.88,0,0,0,.58-.45,2.4,2.4,0,0,0,.39-.57,4.59,4.59,0,0,0,.22-.56,9,9,0,0,0,.29-1.08c.09-.43.18-.87.26-1.33s.16-.89.23-1.31l.15-1c0-.22.07-.46.1-.75s.07-.58.1-.89.08-.65.11-1,.07-.65.11-1,.06-.62.09-.91.06-.54.08-.76h6Z"/><polygon class="cls-1" points="174.93 232.38 182.26 232.38 182.26 234.57 177.48 234.57 177.48 237.91 180.9 237.91 180.9 240.09 177.48 240.09 177.48 243.88 182.48 243.88 182.48 246.07 174.93 246.07 174.93 232.38"/><path class="cls-1" d="M187.6,232.38v3.87c0,.3,0,.62,0,1s0,.75-.06,1.21-.06,1-.1,1.59-.09,1.31-.14,2.11l.28-.83.32-.87c.1-.28.21-.56.31-.82l.27-.67,2.76-6.55h2.54v13.69H191.2v-3.89c0-.3,0-.62,0-1s0-.75.06-1.21.06-1,.1-1.59.09-1.3.15-2.11q-.06.15-.15.42c-.06.17-.12.36-.2.56s-.15.42-.23.64l-.23.63c-.07.21-.14.39-.2.56s-.12.29-.16.39l-2.78,6.56H185V232.38Z"/><path class="cls-1" d="M199.12,244.7h-1.88l1.35-3.65-1.35-3.64h1.88l1.76,3.64Zm3.36,0h-1.89l1.34-3.65-1.34-3.64h1.89l1.76,3.64Z"/><path class="cls-1" d="M36.78,261.58a.87.87,0,0,0,.3,0,.72.72,0,0,0,.21-.12.7.7,0,0,0,.13-.17,1.59,1.59,0,0,0,.07-.2,1.16,1.16,0,0,0,0-.18c0-.07,0-.12,0-.17a1,1,0,0,0-.23-.68.93.93,0,0,0-.7-.24h-.36v1.8Zm-.17-2.67a.74.74,0,0,0,.36-.08.61.61,0,0,0,.22-.2.68.68,0,0,0,.12-.26,1.39,1.39,0,0,0,0-.27,1.83,1.83,0,0,0,0-.21.58.58,0,0,0-.09-.25.49.49,0,0,0-.21-.19.8.8,0,0,0-.38-.08h-.39v1.54Zm0-2.42h.29l.38.05a2.07,2.07,0,0,1,.4.13,1.18,1.18,0,0,1,.37.26,1.22,1.22,0,0,1,.27.41,1.65,1.65,0,0,1,.1.62,1.26,1.26,0,0,1-.05.37,1.4,1.4,0,0,1-.16.38,1.3,1.3,0,0,1-.3.32,1.2,1.2,0,0,1-.45.23,1.82,1.82,0,0,1,.47.21,1.46,1.46,0,0,1,.37.33,1.83,1.83,0,0,1,.24.46,2,2,0,0,1,.08.57c0,.08,0,.17,0,.28a2.37,2.37,0,0,1-.08.34,1.93,1.93,0,0,1-.19.34,1.12,1.12,0,0,1-.33.32l-.19.1a1.37,1.37,0,0,1-.31.11,2.62,2.62,0,0,1-.47.09,4.33,4.33,0,0,1-.66,0H35.14v-6Z"/><path class="cls-1" d="M45.31,256.49v2a2.37,2.37,0,0,0,0,.41.89.89,0,0,0,.11.26.44.44,0,0,0,.17.14.59.59,0,0,0,.23.05,1,1,0,0,0,.3-.05.84.84,0,0,0,.32-.19v-2.63h1.11v6H46.47v-2.4a3.12,3.12,0,0,1-.43.15,2,2,0,0,1-.5.06,1.64,1.64,0,0,1-.53-.08,1,1,0,0,1-.37-.19,1.09,1.09,0,0,1-.24-.29,1.64,1.64,0,0,1-.14-.33,1.33,1.33,0,0,1,0-.34c0-.12,0-.23,0-.33v-2.22Z"/><polygon class="cls-1" points="49.18 256.5 52.38 256.5 52.38 257.45 50.3 257.45 50.3 258.9 51.79 258.9 51.79 259.86 50.3 259.86 50.3 261.5 52.47 261.5 52.47 262.46 49.18 262.46 49.18 256.5"/><path class="cls-1" d="M56.85,261.19a1.63,1.63,0,0,1-.07.3,2.19,2.19,0,0,1-.12.33,1.66,1.66,0,0,1-.19.3,1.2,1.2,0,0,1-.29.26,1.47,1.47,0,0,1-.4.18,1.64,1.64,0,0,1-.52.07,1.71,1.71,0,0,1-.7-.13,1.54,1.54,0,0,1-.52-.35,1.86,1.86,0,0,1-.37-.53,3.11,3.11,0,0,1-.23-.65,5.27,5.27,0,0,1-.13-.73c0-.25,0-.5,0-.76s0-.42,0-.65a4.31,4.31,0,0,1,.09-.71,3.73,3.73,0,0,1,.21-.67,1.8,1.8,0,0,1,.35-.58,1.78,1.78,0,0,1,.54-.39,1.82,1.82,0,0,1,.77-.15,2.54,2.54,0,0,1,.41,0,1.42,1.42,0,0,1,.31.11,1.36,1.36,0,0,1,.24.13l.17.14.16.19a2.15,2.15,0,0,1,.14.26,1.42,1.42,0,0,1,.11.31,1.58,1.58,0,0,1,0,.38v.06l-1,.09a.94.94,0,0,0-.06-.3.68.68,0,0,0-.14-.23.48.48,0,0,0-.2-.14.53.53,0,0,0-.25-.05.55.55,0,0,0-.32.09.84.84,0,0,0-.22.27,1.31,1.31,0,0,0-.14.38,3.17,3.17,0,0,0-.07.46c0,.16,0,.32,0,.48s0,.32,0,.46,0,.35,0,.52a4.24,4.24,0,0,0,0,.51,3,3,0,0,0,.07.45,1.68,1.68,0,0,0,.14.38.92.92,0,0,0,.23.25.64.64,0,0,0,.34.09.46.46,0,0,0,.19,0,.44.44,0,0,0,.19-.12.82.82,0,0,0,.18-.22,1,1,0,0,0,.11-.35Z"/><polygon class="cls-1" points="61.1 256.5 61.1 257.45 59.75 257.45 59.75 262.46 58.63 262.46 58.63 257.45 57.28 257.45 57.28 256.5 61.1 256.5"/><path class="cls-1" d="M63.63,261.58a.8.8,0,0,0,.41-.09.64.64,0,0,0,.25-.24.84.84,0,0,0,.12-.31,2,2,0,0,0,0-.33c0-.11,0-.23,0-.34a.81.81,0,0,0-.11-.32.61.61,0,0,0-.28-.24,1.13,1.13,0,0,0-.5-.1h-.19v2Zm-.29-5.09v2.25h.16l.41,0a2.66,2.66,0,0,1,.46.09,2.27,2.27,0,0,1,.45.21,1.38,1.38,0,0,1,.4.33,1.83,1.83,0,0,1,.27.5,2.1,2.1,0,0,1,.11.7,2.28,2.28,0,0,1,0,.44,2,2,0,0,1-.13.41,1.58,1.58,0,0,1-.2.36,1.2,1.2,0,0,1-.27.28l-.26.15-.34.12a3,3,0,0,1-.46.07,5.09,5.09,0,0,1-.58,0H62.23v-6Z"/><polygon class="cls-1" points="74.65 256.5 74.65 262.46 73.53 262.46 73.53 257.45 72.37 257.45 72.37 262.46 71.26 262.46 71.26 256.5 74.65 256.5"/><path class="cls-1" d="M77.36,259.35h.29a.83.83,0,0,0,.41-.09.82.82,0,0,0,.25-.24.88.88,0,0,0,.12-.32,2.07,2.07,0,0,0,0-.35,1.84,1.84,0,0,0,0-.33.88.88,0,0,0-.12-.32.64.64,0,0,0-.25-.24.8.8,0,0,0-.41-.09h-.29Zm.34-2.86.4,0a1.74,1.74,0,0,1,.43.09,1.38,1.38,0,0,1,.41.19,1.17,1.17,0,0,1,.35.32,1.54,1.54,0,0,1,.24.48,2.36,2.36,0,0,1,.09.69,2.4,2.4,0,0,1-.09.69,2,2,0,0,1-.26.51,1.33,1.33,0,0,1-.36.35,2,2,0,0,1-.43.23,3.6,3.6,0,0,1-.44.12l-.42,0h-.26v2.24H76.25v-6Z"/><path class="cls-1" d="M82.34,260l-.43-2.43a.19.19,0,0,0,0-.08s0-.06,0-.1,0-.1,0-.17,0-.19,0-.33c0,.11,0,.19,0,.27s0,.14,0,.2l0,.14a.5.5,0,0,1,0,.12L81.3,260Zm.37-3.6,1.17,6H82.79L82.5,261H81.14l-.29,1.5H79.76l1.16-6Z"/><path class="cls-1" d="M84.36,257.9a1.77,1.77,0,0,1,.15-.66,1.54,1.54,0,0,1,.38-.49,1.67,1.67,0,0,1,.53-.32,2,2,0,0,1,.66-.1,1.83,1.83,0,0,1,.66.11,2,2,0,0,1,.55.32,1.67,1.67,0,0,1,.37.5,1.5,1.5,0,0,1,.14.64,1.54,1.54,0,0,1-.21.81,1.29,1.29,0,0,1-.2.25,1,1,0,0,1-.21.17l-.19.11-.12.05a1.61,1.61,0,0,1,.45.24,1.37,1.37,0,0,1,.34.34,1.78,1.78,0,0,1,.21.44,1.64,1.64,0,0,1,.08.5,2.19,2.19,0,0,1-.09.66,2,2,0,0,1-.25.49,1.36,1.36,0,0,1-.35.33,1.71,1.71,0,0,1-.4.21,2,2,0,0,1-.41.1l-.36,0a1.71,1.71,0,0,1-.7-.13,1.8,1.8,0,0,1-.54-.32,1.52,1.52,0,0,1-.35-.45,1.35,1.35,0,0,1-.17-.5l.92-.25a1.17,1.17,0,0,0,.09.24,1,1,0,0,0,.17.23,1,1,0,0,0,.24.16.83.83,0,0,0,.32.06.53.53,0,0,0,.34-.1.75.75,0,0,0,.22-.25.86.86,0,0,0,.12-.3,1,1,0,0,0,0-.27,1.26,1.26,0,0,0-.05-.33.79.79,0,0,0-.18-.29,1,1,0,0,0-.33-.22,1.24,1.24,0,0,0-.5-.09h-.24v-.95h.24a1.06,1.06,0,0,0,.42-.07.65.65,0,0,0,.29-.18.71.71,0,0,0,.16-.28,1,1,0,0,0,.06-.36,1.26,1.26,0,0,0,0-.27.59.59,0,0,0-.12-.22.38.38,0,0,0-.2-.15.61.61,0,0,0-.28-.06.6.6,0,0,0-.27.06.66.66,0,0,0-.21.15.76.76,0,0,0-.13.23.88.88,0,0,0-.06.27Z"/><path class="cls-1" d="M90.85,257.45c0,.43-.09.82-.14,1.19s-.11.71-.18,1-.15.64-.23.94-.18.59-.29.88h1.5v-4.05Zm1.77-1v5h.61v2.05H92.17v-1.09H89.64v1.09H88.57V261.5H89a6.63,6.63,0,0,0,.31-.82q.14-.42.24-.87c.06-.29.12-.59.17-.88s.08-.59.12-.87.06-.56.09-.83,0-.51.08-.74Z"/><polygon class="cls-1" points="95.48 256.5 95.48 258.91 96.64 258.91 96.64 256.5 97.76 256.5 97.76 262.46 96.64 262.46 96.64 259.86 95.48 259.86 95.48 262.46 94.37 262.46 94.37 256.5 95.48 256.5"/><path class="cls-1" d="M101,257.31a.51.51,0,0,0-.4.16,1.16,1.16,0,0,0-.22.46,3.87,3.87,0,0,0-.11.68c0,.27,0,.55,0,.86s0,.59,0,.85a3.36,3.36,0,0,0,.1.69,1.16,1.16,0,0,0,.22.46.51.51,0,0,0,.41.18.5.5,0,0,0,.4-.18,1.16,1.16,0,0,0,.22-.46,3.36,3.36,0,0,0,.1-.69c0-.26,0-.55,0-.85s0-.59,0-.86a3.12,3.12,0,0,0-.11-.68,1,1,0,0,0-.22-.46.5.5,0,0,0-.39-.16m1.9,2.16c0,.21,0,.42,0,.65a3.74,3.74,0,0,1-.09.66,3.48,3.48,0,0,1-.19.65,2.52,2.52,0,0,1-.32.58l-.19.2a1,1,0,0,1-.27.2,1.61,1.61,0,0,1-.35.16,1.73,1.73,0,0,1-.47.06,1.75,1.75,0,0,1-.48-.06,1.61,1.61,0,0,1-.35-.16,1,1,0,0,1-.27-.2l-.19-.2a2.52,2.52,0,0,1-.32-.58,3.48,3.48,0,0,1-.19-.65,3.74,3.74,0,0,1-.09-.66c0-.23,0-.44,0-.65s0-.44,0-.68a4.21,4.21,0,0,1,.12-.71,4,4,0,0,1,.22-.67,2.3,2.3,0,0,1,.35-.56,1.55,1.55,0,0,1,.5-.38,1.75,1.75,0,0,1,1.37,0,1.55,1.55,0,0,1,.5.38,2.3,2.3,0,0,1,.35.56,3.28,3.28,0,0,1,.22.67,4.21,4.21,0,0,1,.12.71C102.85,259,102.86,259.26,102.86,259.47Z"/><path class="cls-1" d="M105.8,261.58a.87.87,0,0,0,.3,0,.72.72,0,0,0,.21-.12.7.7,0,0,0,.13-.17,1.59,1.59,0,0,0,.07-.2,1.16,1.16,0,0,0,0-.18v-.17a1,1,0,0,0-.22-.68.93.93,0,0,0-.7-.24h-.36v1.8Zm-.17-2.67a.74.74,0,0,0,.36-.08.61.61,0,0,0,.22-.2.68.68,0,0,0,.12-.26,1.39,1.39,0,0,0,0-.27,1.83,1.83,0,0,0,0-.21.58.58,0,0,0-.09-.25.56.56,0,0,0-.21-.19.8.8,0,0,0-.38-.08h-.39v1.54Zm0-2.42h.3l.38.05a2.07,2.07,0,0,1,.4.13,1.18,1.18,0,0,1,.37.26,1.22,1.22,0,0,1,.27.41,1.65,1.65,0,0,1,.1.62,1.26,1.26,0,0,1,0,.37,1.4,1.4,0,0,1-.16.38,1.3,1.3,0,0,1-.3.32,1.2,1.2,0,0,1-.45.23,1.82,1.82,0,0,1,.47.21,1.46,1.46,0,0,1,.37.33,1.53,1.53,0,0,1,.23.46,1.7,1.7,0,0,1,.09.57c0,.08,0,.17,0,.28a1.47,1.47,0,0,1-.07.34,1.93,1.93,0,0,1-.19.34,1.12,1.12,0,0,1-.33.32l-.19.1a1.37,1.37,0,0,1-.31.11,2.62,2.62,0,0,1-.47.09,4.33,4.33,0,0,1-.66,0h-1.27v-6Z"/><path class="cls-1" d="M111,260l-.42-2.43a.31.31,0,0,1,0-.08.3.3,0,0,1,0-.1s0-.1,0-.17,0-.19,0-.33a1.73,1.73,0,0,1,0,.27c0,.08,0,.14,0,.2a.78.78,0,0,0,0,.14l0,.12-.4,2.38Zm.37-3.6,1.17,6h-1.09l-.28-1.5h-1.37l-.29,1.5H108.4l1.16-6Z"/><polygon class="cls-1" points="114.62 256.5 114.62 258.91 115.78 258.91 115.78 256.5 116.89 256.5 116.89 262.46 115.78 262.46 115.78 259.86 114.62 259.86 114.62 262.46 113.51 262.46 113.51 256.5 114.62 256.5"/><path class="cls-1" d="M119.61,256.49v1.69c0,.13,0,.27,0,.42s0,.32,0,.52,0,.44,0,.7,0,.57-.06.92c0-.11.08-.24.13-.36s.09-.26.13-.38.09-.25.14-.36a2.85,2.85,0,0,1,.12-.29l1.2-2.86h1.1v6h-1.11v-1.7c0-.13,0-.27,0-.42s0-.32,0-.52,0-.43.05-.69,0-.57.06-.93c0,.05,0,.11-.06.19l-.09.24c0,.09-.06.19-.1.28s-.07.19-.1.28l-.09.24c0,.07,0,.13-.06.17l-1.22,2.86h-1.1v-6Z"/><path class="cls-1" d="M126.16,262.46v-2.41h-.27a.49.49,0,0,0-.28.08.58.58,0,0,0-.19.19.83.83,0,0,0-.12.25,2.33,2.33,0,0,0-.07.25l-.19.71a1.48,1.48,0,0,1-.24.52,1.25,1.25,0,0,1-.36.3,1.69,1.69,0,0,1-.45.14l-.51,0-.15-.93h.11a.59.59,0,0,0,.45-.17,1.12,1.12,0,0,0,.26-.5l.15-.61a1,1,0,0,1,.19-.41,1.07,1.07,0,0,1,.34-.3,1.43,1.43,0,0,1-.7-.55,1.52,1.52,0,0,1-.24-.86,1.79,1.79,0,0,1,.1-.64,1.46,1.46,0,0,1,.26-.46,1.36,1.36,0,0,1,.37-.31,2.35,2.35,0,0,1,.43-.19,2.07,2.07,0,0,1,.42-.08l.37,0h1.44v6Zm0-5.09h-.42l-.16,0a.52.52,0,0,0-.16.06.57.57,0,0,0-.16.11.55.55,0,0,0-.11.17,1.34,1.34,0,0,0-.07.18l0,.17v.15a1.89,1.89,0,0,0,0,.31,1,1,0,0,0,.12.32.88.88,0,0,0,.25.26.78.78,0,0,0,.43.1h.28Z"/><polygon class="cls-1" points="134.24 262.63 133.13 262.63 135.19 257.45 132.9 257.45 132.9 256.5 136.35 256.5 136.35 257.33 134.24 262.63"/><path class="cls-1" d="M137.66,259.9l.29-3.41h2.77v.93h-2.06l-.13,1.44a1.66,1.66,0,0,1,.43-.2,1.59,1.59,0,0,1,.43-.06,1.38,1.38,0,0,1,1.13.51,2.69,2.69,0,0,1-.07,3,1.65,1.65,0,0,1-1.33.56,1.94,1.94,0,0,1-1-.26,1.65,1.65,0,0,1-.64-.79l.88-.43a1.2,1.2,0,0,0,.32.43.68.68,0,0,0,.42.13.64.64,0,0,0,.56-.28,1.42,1.42,0,0,0,.2-.81,1.37,1.37,0,0,0-.18-.77.56.56,0,0,0-.5-.26.71.71,0,0,0-.39.11,1.07,1.07,0,0,0-.34.38Z"/><rect class="cls-1" x="142.24" y="259.74" width="2.87" height="0.96"/><path class="cls-1" d="M150.17,262.46h-1.12v-5h-.59l0,.16c0,.08,0,.18,0,.28s0,.23,0,.36,0,.25-.05.38,0,.24,0,.35,0,.22,0,.3c0,.29-.07.54-.11.75l-.1.53a3.37,3.37,0,0,1-.09.37l-.07.25-.1.26a1.11,1.11,0,0,1-.14.29,1.54,1.54,0,0,1-.22.3,1.58,1.58,0,0,1-.31.26,2,2,0,0,1-.42.18,2.12,2.12,0,0,1-.54.08l-.14-.94h0a.81.81,0,0,0,.37-.08.73.73,0,0,0,.26-.19,1.38,1.38,0,0,0,.17-.25,1.52,1.52,0,0,0,.09-.25,2.92,2.92,0,0,0,.13-.46c0-.19.08-.38.11-.58s.07-.39.1-.57,0-.33.07-.44,0-.21,0-.33,0-.25.05-.39,0-.28,0-.42,0-.29.05-.43,0-.27,0-.39a2.24,2.24,0,0,0,0-.34h2.61Z"/><polygon class="cls-1" points="151.77 256.5 154.96 256.5 154.96 257.45 152.88 257.45 152.88 258.9 154.37 258.9 154.37 259.86 152.88 259.86 152.88 261.5 155.06 261.5 155.06 262.46 151.77 262.46 151.77 256.5"/><polygon class="cls-1" points="159.51 256.5 159.51 257.45 158.15 257.45 158.15 262.46 157.04 262.46 157.04 257.45 155.69 257.45 155.69 256.5 159.51 256.5"/><path class="cls-1" d="M161.75,256.49v1.69c0,.13,0,.27,0,.42s0,.32,0,.52,0,.44,0,.7,0,.57-.06.92a3,3,0,0,1,.12-.36c.05-.13.09-.26.14-.38s.09-.25.13-.36.08-.21.12-.29l1.2-2.86h1.11v6h-1.12v-1.7c0-.13,0-.27,0-.42s0-.32,0-.52,0-.43,0-.69,0-.57.07-.93l-.07.19c0,.07,0,.16-.08.24s-.07.19-.1.28-.07.19-.1.28a1.86,1.86,0,0,0-.09.24l-.07.17-1.21,2.86h-1.11v-6Z"/><path class="cls-1" d="M168.3,262.46v-2.41H168a.52.52,0,0,0-.29.08.69.69,0,0,0-.19.19.83.83,0,0,0-.12.25l-.07.25-.19.71a1.2,1.2,0,0,1-.24.52,1,1,0,0,1-.36.3,1.69,1.69,0,0,1-.45.14,4.12,4.12,0,0,1-.51,0l-.14-.93h.1a.57.57,0,0,0,.45-.17,1,1,0,0,0,.26-.5l.15-.61a1,1,0,0,1,.2-.41.89.89,0,0,1,.34-.3,1.39,1.39,0,0,1-.7-.55,1.45,1.45,0,0,1-.25-.86,2,2,0,0,1,.1-.64,1.47,1.47,0,0,1,.27-.46,1.23,1.23,0,0,1,.37-.31,2.26,2.26,0,0,1,.42-.19,2.37,2.37,0,0,1,.42-.08l.38,0h1.43v6Zm0-5.09h-.42a.9.9,0,0,0-.16,0,.58.58,0,0,0-.17.06.72.72,0,0,0-.15.11.88.88,0,0,0-.12.17.64.64,0,0,0-.06.18.55.55,0,0,0,0,.17.86.86,0,0,0,0,.15,1.89,1.89,0,0,0,0,.31.8.8,0,0,0,.13.32.7.7,0,0,0,.67.36h.29Z"/><path class="cls-1" d="M31.44,268a.48.48,0,0,0-.39.16,1,1,0,0,0-.23.46,3.16,3.16,0,0,0-.1.69c0,.26,0,.54,0,.85s0,.59,0,.85a3.26,3.26,0,0,0,.1.69,1.15,1.15,0,0,0,.23.47.56.56,0,0,0,.8,0,1.14,1.14,0,0,0,.22-.47,2.72,2.72,0,0,0,.1-.69c0-.26,0-.55,0-.85s0-.59,0-.85a3.92,3.92,0,0,0-.1-.69,1.16,1.16,0,0,0-.23-.46.5.5,0,0,0-.39-.16m1.91,2.16c0,.21,0,.42,0,.65a3.74,3.74,0,0,1-.09.66,2.86,2.86,0,0,1-.19.65,2.19,2.19,0,0,1-.32.58,1.7,1.7,0,0,1-.19.2,1.06,1.06,0,0,1-.26.2,2,2,0,0,1-.36.16,1.73,1.73,0,0,1-.47.06,1.63,1.63,0,0,1-.47-.06,1.5,1.5,0,0,1-.36-.16,1.11,1.11,0,0,1-.27-.2l-.19-.2a2.52,2.52,0,0,1-.32-.58,4.45,4.45,0,0,1-.19-.65q-.06-.33-.09-.66c0-.23,0-.44,0-.65s0-.44,0-.68a4.39,4.39,0,0,1,.12-.71,4,4,0,0,1,.22-.67,2.3,2.3,0,0,1,.35-.56,1.7,1.7,0,0,1,.5-.38,1.52,1.52,0,0,1,.69-.14,1.48,1.48,0,0,1,.68.14,1.58,1.58,0,0,1,.5.38,2.33,2.33,0,0,1,.36.56,5.25,5.25,0,0,1,.22.67,5.81,5.81,0,0,1,.11.71C33.33,269.72,33.35,270,33.35,270.16Z"/><path class="cls-1" d="M36,272.27a.87.87,0,0,0,.42-.09.69.69,0,0,0,.24-.24.84.84,0,0,0,.12-.31,2,2,0,0,0,0-.33c0-.11,0-.23,0-.34a.81.81,0,0,0-.11-.32.64.64,0,0,0-.27-.24,1.23,1.23,0,0,0-.51-.09h-.19v2Zm1.64-5.08v.95H35.75v1.29H36l.39,0a1.74,1.74,0,0,1,.43.09,2,2,0,0,1,.44.21,1.32,1.32,0,0,1,.37.34,1.88,1.88,0,0,1,.27.53,2.22,2.22,0,0,1,.1.73,2.29,2.29,0,0,1-.09.68,1.72,1.72,0,0,1-.24.49,1.5,1.5,0,0,1-.35.32,2.17,2.17,0,0,1-.41.19l-.43.09-.41,0H34.64v-6Z"/><path class="cls-1" d="M40.46,270h.28a.8.8,0,0,0,.41-.09.72.72,0,0,0,.25-.24.88.88,0,0,0,.12-.32,2.07,2.07,0,0,0,0-.35c0-.11,0-.22,0-.33a1.13,1.13,0,0,0-.13-.32.62.62,0,0,0-.24-.24.87.87,0,0,0-.42-.09h-.28Zm.33-2.85a2.82,2.82,0,0,1,.4,0,1.57,1.57,0,0,1,.43.09,1.38,1.38,0,0,1,.41.19,1.17,1.17,0,0,1,.35.32,1.49,1.49,0,0,1,.24.49,2.24,2.24,0,0,1,.09.68,2.4,2.4,0,0,1-.09.69,2,2,0,0,1-.25.51,1.7,1.7,0,0,1-.36.35,2,2,0,0,1-.43.23,3.74,3.74,0,0,1-.45.12l-.42,0h-.25v2.24H39.34v-6Z"/><path class="cls-1" d="M45.44,270.7,45,268.27a.31.31,0,0,1,0-.08s0-.06,0-.1,0-.1,0-.17,0-.19,0-.33c0,.11,0,.19,0,.27s0,.14,0,.2l0,.14,0,.12-.4,2.38Zm.36-3.59,1.18,6h-1.1l-.28-1.5H44.23l-.28,1.5h-1.1l1.17-6Z"/><path class="cls-1" d="M47.45,268.59a1.6,1.6,0,0,1,.16-.66,1.51,1.51,0,0,1,.37-.49,1.72,1.72,0,0,1,.54-.32,2,2,0,0,1,.65-.1,1.76,1.76,0,0,1,.66.11,2,2,0,0,1,.55.32,1.52,1.52,0,0,1,.37.5,1.5,1.5,0,0,1,.14.64,1.6,1.6,0,0,1-.06.46,1.22,1.22,0,0,1-.14.35,1.32,1.32,0,0,1-.21.25,1,1,0,0,1-.21.17,1.25,1.25,0,0,1-.18.11L50,270a1.83,1.83,0,0,1,.46.24,1.57,1.57,0,0,1,.34.34A1.78,1.78,0,0,1,51,271a1.63,1.63,0,0,1,.07.5,2.19,2.19,0,0,1-.09.66,1.72,1.72,0,0,1-.24.49,1.55,1.55,0,0,1-.35.33,1.77,1.77,0,0,1-.41.21,2,2,0,0,1-.4.1l-.36,0a1.76,1.76,0,0,1-.71-.13,1.63,1.63,0,0,1-.53-.32,1.6,1.6,0,0,1-.53-.95l.93-.25a.59.59,0,0,0,.09.24.76.76,0,0,0,.17.23.6.6,0,0,0,.24.16.78.78,0,0,0,.31.06.58.58,0,0,0,.35-.1.88.88,0,0,0,.22-.25,1.11,1.11,0,0,0,.12-.3,1.57,1.57,0,0,0,0-.27,1,1,0,0,0-.05-.33.88.88,0,0,0-.18-.29.91.91,0,0,0-.33-.22,1.21,1.21,0,0,0-.5-.09h-.24v-.95h.24a1.11,1.11,0,0,0,.43-.07.68.68,0,0,0,.28-.18.73.73,0,0,0,.17-.28,1.36,1.36,0,0,0,0-.36.84.84,0,0,0,0-.27.57.57,0,0,0-.11-.22.48.48,0,0,0-.2-.15.64.64,0,0,0-.28-.06.61.61,0,0,0-.28.06.65.65,0,0,0-.21.16.8.8,0,0,0-.13.22.86.86,0,0,0,0,.27Z"/><path class="cls-1" d="M53.93,268a.5.5,0,0,0-.39.16,1.16,1.16,0,0,0-.23.46,3.92,3.92,0,0,0-.1.69c0,.26,0,.54,0,.85s0,.59,0,.85a4.07,4.07,0,0,0,.1.69,1.29,1.29,0,0,0,.23.47.56.56,0,0,0,.8,0,1.15,1.15,0,0,0,.23-.47,4.07,4.07,0,0,0,.1-.69c0-.26,0-.55,0-.85s0-.59,0-.85a3.16,3.16,0,0,0-.1-.69,1,1,0,0,0-.23-.46.5.5,0,0,0-.39-.16m1.91,2.16c0,.21,0,.42,0,.65s0,.44-.09.66a4.45,4.45,0,0,1-.19.65,2.52,2.52,0,0,1-.32.58l-.19.2a1.35,1.35,0,0,1-.27.2,1.5,1.5,0,0,1-.36.16,1.63,1.63,0,0,1-.47.06,1.68,1.68,0,0,1-.47-.06,1.7,1.7,0,0,1-.36-.16,1.06,1.06,0,0,1-.26-.2,1.7,1.7,0,0,1-.19-.2,2.56,2.56,0,0,1-.33-.58,3.46,3.46,0,0,1-.18-.65,3.74,3.74,0,0,1-.09-.66c0-.23,0-.44,0-.65a5.49,5.49,0,0,1,0-.68,5.81,5.81,0,0,1,.11-.71,5.25,5.25,0,0,1,.22-.67,2.65,2.65,0,0,1,.35-.56,1.74,1.74,0,0,1,.51-.38,1.72,1.72,0,0,1,1.36,0,1.62,1.62,0,0,1,.51.38,2.3,2.3,0,0,1,.35.56,4,4,0,0,1,.22.67,5.85,5.85,0,0,1,.12.71C55.83,269.72,55.84,270,55.84,270.16Z"/><path class="cls-1" d="M58.78,272.27a.85.85,0,0,0,.29,0,.53.53,0,0,0,.21-.12.52.52,0,0,0,.13-.17.84.84,0,0,0,.08-.2.57.57,0,0,0,0-.18,1,1,0,0,0,0-.17,1,1,0,0,0-.23-.68.91.91,0,0,0-.7-.24h-.35v1.8Zm-.17-2.67a.8.8,0,0,0,.36-.08.7.7,0,0,0,.22-.2.85.85,0,0,0,.11-.26,1.39,1.39,0,0,0,0-.27,1.62,1.62,0,0,0,0-.21.5.5,0,0,0-.09-.24.58.58,0,0,0-.21-.2.82.82,0,0,0-.38-.08h-.39v1.54Zm0-2.41h.29l.38.05a2.16,2.16,0,0,1,.41.13,1.18,1.18,0,0,1,.37.26,1.2,1.2,0,0,1,.26.41,1.64,1.64,0,0,1,.11.62,1.72,1.72,0,0,1-.05.37,1.43,1.43,0,0,1-.17.38,1.14,1.14,0,0,1-.3.32,1.23,1.23,0,0,1-.44.23,2,2,0,0,1,.47.21,1.42,1.42,0,0,1,.36.33,1.35,1.35,0,0,1,.24.46,1.71,1.71,0,0,1,.08.57c0,.08,0,.17,0,.28a1.51,1.51,0,0,1-.08.34,1.4,1.4,0,0,1-.18.34,1.05,1.05,0,0,1-.34.32l-.18.1a1.48,1.48,0,0,1-.32.11,2.31,2.31,0,0,1-.47.09,4.16,4.16,0,0,1-.66,0H57.13v-6Z"/><path class="cls-1" d="M64,270.7l-.43-2.43s0-.06,0-.08a.44.44,0,0,0,0-.1,1.49,1.49,0,0,0,0-.17c0-.08,0-.19,0-.33,0,.11,0,.19,0,.27s0,.14,0,.2l0,.14a.5.5,0,0,0,0,.12l-.41,2.38Zm.36-3.59,1.18,6H64.4l-.28-1.5H62.75l-.28,1.5h-1.1l1.17-6Z"/><polygon class="cls-1" points="67.6 267.19 67.6 269.6 68.75 269.6 68.75 267.19 69.87 267.19 69.87 273.15 68.75 273.15 68.75 270.56 67.6 270.56 67.6 273.15 66.48 273.15 66.48 267.19 67.6 267.19"/><path class="cls-1" d="M72.59,267.19v1.68c0,.13,0,.27,0,.42s0,.32,0,.52,0,.44,0,.7,0,.57-.06.92l.12-.36c.05-.13.09-.26.14-.38l.13-.36c0-.11.09-.21.12-.29l1.21-2.85h1.1v6H74.16v-1.7c0-.13,0-.27,0-.42s0-.32,0-.52,0-.43,0-.69,0-.57.06-.92a.93.93,0,0,0-.06.18c0,.07-.06.16-.09.24l-.1.28c0,.1-.07.19-.1.28s-.06.17-.09.24l-.07.17-1.21,2.86H71.47v-6Z"/><path class="cls-1" d="M79.14,273.15v-2.41h-.27a.52.52,0,0,0-.29.08.85.85,0,0,0-.19.19,1,1,0,0,0-.11.25c0,.09-.06.17-.08.25l-.18.71a1.33,1.33,0,0,1-.25.52,1,1,0,0,1-.36.3,1.58,1.58,0,0,1-.45.14,4.12,4.12,0,0,1-.51,0l-.14-.93h.1a.61.61,0,0,0,.46-.17,1,1,0,0,0,.25-.5l.15-.61a1.2,1.2,0,0,1,.2-.41.79.79,0,0,1,.34-.29,1.46,1.46,0,0,1-.7-.56,1.51,1.51,0,0,1-.24-.85,1.81,1.81,0,0,1,.1-.65,1.29,1.29,0,0,1,.26-.46,1.23,1.23,0,0,1,.37-.31,2.6,2.6,0,0,1,.42-.19,2.31,2.31,0,0,1,.43-.08,2.42,2.42,0,0,1,.37,0h1.43v6Zm0-5.09h-.42l-.16,0a.58.58,0,0,0-.17.06.72.72,0,0,0-.15.11.88.88,0,0,0-.12.17.64.64,0,0,0-.06.18l0,.17c0,.06,0,.11,0,.15a2,2,0,0,0,0,.31,1,1,0,0,0,.12.32.7.7,0,0,0,.67.36h.29Z"/><path class="cls-1" d="M89.58,271.88c0,.1,0,.2-.07.3a2.19,2.19,0,0,1-.12.33,1.74,1.74,0,0,1-.2.3,1.16,1.16,0,0,1-.28.26,1.62,1.62,0,0,1-.4.18,2,2,0,0,1-1.22-.06,1.58,1.58,0,0,1-.53-.35,1.93,1.93,0,0,1-.36-.52,3.44,3.44,0,0,1-.24-.66,5.3,5.3,0,0,1-.12-.73,6.34,6.34,0,0,1,0-.76c0-.2,0-.42,0-.65a5.77,5.77,0,0,1,.1-.71,3.71,3.71,0,0,1,.2-.67,2,2,0,0,1,.36-.58,1.57,1.57,0,0,1,.54-.39A1.79,1.79,0,0,1,88,267a2.41,2.41,0,0,1,.4,0,1.33,1.33,0,0,1,.32.11,1,1,0,0,1,.23.13l.17.14a1.08,1.08,0,0,1,.16.2,1,1,0,0,1,.15.25,2.24,2.24,0,0,1,.11.31,2.33,2.33,0,0,1,0,.38v.06l-1,.09a1.33,1.33,0,0,0-.06-.3.68.68,0,0,0-.14-.23.56.56,0,0,0-.2-.14.65.65,0,0,0-.58,0,1,1,0,0,0-.22.27,1.88,1.88,0,0,0-.13.38,2.21,2.21,0,0,0-.07.46,3.87,3.87,0,0,0,0,.48c0,.16,0,.32,0,.46s0,.35,0,.52,0,.34,0,.51,0,.31.08.45a1.68,1.68,0,0,0,.14.38.92.92,0,0,0,.23.25.62.62,0,0,0,.34.09.46.46,0,0,0,.19,0,.5.5,0,0,0,.19-.12.8.8,0,0,0,.17-.22,1.35,1.35,0,0,0,.12-.34Z"/><path class="cls-1" d="M92.7,270.7l-.43-2.43s0-.06,0-.08,0-.06,0-.1a1.49,1.49,0,0,0,0-.17c0-.08,0-.19,0-.33,0,.11,0,.19,0,.27s0,.14,0,.2l0,.14,0,.12-.4,2.38Zm.36-3.59,1.18,6h-1.1l-.28-1.5H91.49l-.28,1.5h-1.1l1.17-6Z"/><polygon class="cls-1" points="94.6 273.15 96.03 270.05 94.66 267.19 95.84 267.19 96.64 268.9 97.35 267.19 98.46 267.19 97.17 269.96 98.74 273.15 97.53 273.15 96.59 271.1 95.67 273.15 94.6 273.15"/><path class="cls-1" d="M101.62,270.7l-.43-2.43a.19.19,0,0,0,0-.08s0-.06,0-.1,0-.1,0-.17,0-.19,0-.33c0,.11,0,.19,0,.27s0,.14,0,.2l0,.14a.5.5,0,0,1,0,.12l-.4,2.38Zm.37-3.59,1.17,6h-1.1l-.28-1.5h-1.36l-.29,1.5H99l1.16-6Z"/><path class="cls-1" d="M107.6,273.15h-1.11v-5h-.6l0,.16c0,.08,0,.18,0,.28s0,.23,0,.36,0,.25,0,.38,0,.24,0,.36,0,.21,0,.29q-.06.43-.12.75c0,.21-.07.38-.1.53s-.06.28-.08.37a2.5,2.5,0,0,1-.08.25c0,.07-.05.16-.09.26a2.1,2.1,0,0,1-.15.3,1.85,1.85,0,0,1-.22.29,1.52,1.52,0,0,1-.3.26,2,2,0,0,1-.42.18,2.2,2.2,0,0,1-.55.08l-.13-.94h0a.84.84,0,0,0,.37-.08.69.69,0,0,0,.25-.19,1,1,0,0,0,.17-.25l.1-.24c0-.13.08-.29.12-.47l.12-.58q.06-.3.09-.57c0-.18,0-.33.07-.44a3,3,0,0,0,0-.33c0-.12,0-.25,0-.39s0-.28,0-.42,0-.29,0-.43,0-.27,0-.39,0-.24,0-.33h2.6Z"/><path class="cls-1" d="M110.32,267.19v1.68c0,.13,0,.27,0,.42s0,.32,0,.52,0,.44,0,.7,0,.57-.06.92l.12-.36c0-.13.09-.26.14-.38s.09-.25.14-.36l.11-.29,1.21-2.85H113v6h-1.11v-1.7c0-.13,0-.27,0-.42s0-.32,0-.52,0-.43,0-.69,0-.57.06-.92a.93.93,0,0,0-.06.18l-.09.24-.1.28c0,.1-.07.19-.1.28s-.06.17-.09.24l-.07.17-1.21,2.86H109.2v-6Z"/><polygon class="cls-1" points="115.72 267.19 115.72 269.6 116.88 269.6 116.88 267.19 117.99 267.19 117.99 273.15 116.88 273.15 116.88 270.56 115.72 270.56 115.72 273.15 114.61 273.15 114.61 267.19 115.72 267.19"/><path class="cls-1" d="M122.86,271.88a1.63,1.63,0,0,1-.07.3,1.1,1.1,0,0,1-.12.33,1.66,1.66,0,0,1-.19.3,1.2,1.2,0,0,1-.29.26,1.34,1.34,0,0,1-.4.18,1.64,1.64,0,0,1-.52.07,1.71,1.71,0,0,1-.7-.13,1.54,1.54,0,0,1-.52-.35,2,2,0,0,1-.37-.52,3.43,3.43,0,0,1-.23-.66,5.27,5.27,0,0,1-.13-.73c0-.25,0-.5,0-.76s0-.42,0-.65a4.31,4.31,0,0,1,.09-.71,3.73,3.73,0,0,1,.21-.67,1.8,1.8,0,0,1,.35-.58,1.78,1.78,0,0,1,.54-.39,1.82,1.82,0,0,1,.77-.15,2.54,2.54,0,0,1,.41,0,1.25,1.25,0,0,1,.31.11,1.36,1.36,0,0,1,.24.13l.17.14.16.2a1.48,1.48,0,0,1,.14.25,1.42,1.42,0,0,1,.11.31,1.58,1.58,0,0,1,0,.38v.06l-1,.09a.73.73,0,0,0-.06-.3.86.86,0,0,0-.13-.23.6.6,0,0,0-.21-.14.53.53,0,0,0-.25-.05.55.55,0,0,0-.32.09.84.84,0,0,0-.22.27,1.42,1.42,0,0,0-.14.38,3.17,3.17,0,0,0-.07.46l0,.48c0,.16,0,.32,0,.46s0,.35,0,.52a4.24,4.24,0,0,0,0,.51,3,3,0,0,0,.07.45,1.68,1.68,0,0,0,.14.38.92.92,0,0,0,.23.25.64.64,0,0,0,.34.09.46.46,0,0,0,.19,0,.44.44,0,0,0,.19-.12.82.82,0,0,0,.18-.22,1,1,0,0,0,.11-.34Z"/><path class="cls-1" d="M124,273.15v-6h1.11v2.38h.28a.67.67,0,0,0,.26-.05.75.75,0,0,0,.17-.14.62.62,0,0,0,.12-.19A1.55,1.55,0,0,0,126,269l.22-.75a1.57,1.57,0,0,1,.18-.44,1.17,1.17,0,0,1,.27-.35,1.33,1.33,0,0,1,.38-.23,1.44,1.44,0,0,1,.49-.08h.22l.08.92h-.09a.52.52,0,0,0-.21,0,.38.38,0,0,0-.17.12,1.14,1.14,0,0,0-.15.23,1.73,1.73,0,0,0-.13.35l-.13.48a2.76,2.76,0,0,1-.12.32.93.93,0,0,1-.14.22.52.52,0,0,1-.16.14l-.17.08.18.12.17.17a1.36,1.36,0,0,1,.13.24c0,.09.07.2.11.32l.14.55c0,.12.06.23.09.34a.77.77,0,0,0,.1.28.51.51,0,0,0,.22.19.92.92,0,0,0,.41.07H128l-.15.92h-.18a1.45,1.45,0,0,1-.67-.13,1.22,1.22,0,0,1-.42-.3,1.38,1.38,0,0,1-.23-.38,2.19,2.19,0,0,1-.11-.34l-.21-.79c0-.13-.06-.23-.09-.33a.7.7,0,0,0-.1-.23.43.43,0,0,0-.18-.15.68.68,0,0,0-.27-.05h-.28v2.63Z"/><path class="cls-1" d="M130.42,268a.5.5,0,0,0-.39.16,1,1,0,0,0-.23.46,3.16,3.16,0,0,0-.1.69c0,.26,0,.54,0,.85s0,.59,0,.85a4.07,4.07,0,0,0,.1.69,1.29,1.29,0,0,0,.23.47.56.56,0,0,0,.8,0,1.15,1.15,0,0,0,.23-.47,4.07,4.07,0,0,0,.1-.69c0-.26,0-.55,0-.85s0-.59,0-.85a3.16,3.16,0,0,0-.1-.69,1,1,0,0,0-.23-.46.5.5,0,0,0-.39-.16m1.91,2.16c0,.21,0,.42,0,.65s-.05.44-.09.66a4.45,4.45,0,0,1-.19.65,2.52,2.52,0,0,1-.32.58l-.19.2a1.35,1.35,0,0,1-.27.2,1.5,1.5,0,0,1-.36.16,1.87,1.87,0,0,1-.94,0,1.5,1.5,0,0,1-.36-.16,1.06,1.06,0,0,1-.26-.2,1.7,1.7,0,0,1-.19-.2,2.23,2.23,0,0,1-.33-.58,4.45,4.45,0,0,1-.19-.65,5,5,0,0,1-.08-.66c0-.23,0-.44,0-.65a5.49,5.49,0,0,1,0-.68,5.81,5.81,0,0,1,.11-.71,5.25,5.25,0,0,1,.22-.67,2.65,2.65,0,0,1,.35-.56,1.62,1.62,0,0,1,.51-.38,1.72,1.72,0,0,1,1.36,0,1.62,1.62,0,0,1,.51.38,2.65,2.65,0,0,1,.35.56,5.25,5.25,0,0,1,.22.67c0,.24.09.47.12.71S132.33,270,132.33,270.16Z"/><path class="cls-1" d="M134.74,267.19v1.68c0,.13,0,.27,0,.42s0,.32,0,.52,0,.44,0,.7,0,.57-.06.92l.12-.36c.05-.13.09-.26.14-.38s.09-.25.13-.36.09-.21.12-.29l1.2-2.85h1.11v6h-1.11V271c0-.14,0-.32,0-.52s0-.43,0-.69,0-.57.07-.92c0,0,0,.1-.07.18s0,.16-.08.24-.07.19-.1.28-.07.19-.1.28-.06.17-.09.24l-.07.17-1.21,2.86h-1.11v-6Zm2.13-1.46c0,.07,0,.15-.07.24a2.72,2.72,0,0,1-.11.25,1.77,1.77,0,0,1-.17.24,1.59,1.59,0,0,1-.24.2,1.22,1.22,0,0,1-.33.14,1.46,1.46,0,0,1-.44.06,1.35,1.35,0,0,1-.43-.06,1,1,0,0,1-.33-.14,1.29,1.29,0,0,1-.25-.2,1.67,1.67,0,0,1-.16-.24,1.36,1.36,0,0,1-.11-.25,1.53,1.53,0,0,1-.07-.24l.68-.24a1.35,1.35,0,0,0,.08.24.77.77,0,0,0,.13.2.56.56,0,0,0,.2.14.7.7,0,0,0,.52,0,.56.56,0,0,0,.2-.14.58.58,0,0,0,.13-.2.85.85,0,0,0,.08-.24Z"/><path class="cls-1" d="M145.08,268a.51.51,0,0,0-.4.16,1.16,1.16,0,0,0-.22.46,3.84,3.84,0,0,0-.11.69c0,.26,0,.54,0,.85s0,.59,0,.85a3.26,3.26,0,0,0,.1.69,1.28,1.28,0,0,0,.22.47.53.53,0,0,0,.41.17.53.53,0,0,0,.4-.17,1.14,1.14,0,0,0,.22-.47,2.72,2.72,0,0,0,.1-.69c0-.26,0-.55,0-.85s0-.59,0-.85a3.11,3.11,0,0,0-.11-.69,1,1,0,0,0-.22-.46.5.5,0,0,0-.39-.16m1.9,2.16c0,.21,0,.42,0,.65a3.74,3.74,0,0,1-.09.66,3.48,3.48,0,0,1-.19.65,2.52,2.52,0,0,1-.32.58,1.7,1.7,0,0,1-.19.2,1,1,0,0,1-.27.2,1.61,1.61,0,0,1-.35.16,1.73,1.73,0,0,1-.47.06,1.75,1.75,0,0,1-.48-.06,1.61,1.61,0,0,1-.35-.16,1.11,1.11,0,0,1-.27-.2l-.19-.2a2.52,2.52,0,0,1-.32-.58,3.48,3.48,0,0,1-.19-.65,3.74,3.74,0,0,1-.09-.66c0-.23,0-.44,0-.65s0-.44,0-.68a4.39,4.39,0,0,1,.12-.71,4,4,0,0,1,.22-.67,2.3,2.3,0,0,1,.35-.56,1.7,1.7,0,0,1,.5-.38,1.75,1.75,0,0,1,1.37,0,1.7,1.7,0,0,1,.5.38,2.3,2.3,0,0,1,.35.56,3.28,3.28,0,0,1,.22.67,4.39,4.39,0,0,1,.12.71C147,269.72,147,270,147,270.16Z"/><path class="cls-1" d="M149.68,272.27a.8.8,0,0,0,.41-.09.64.64,0,0,0,.25-.24.84.84,0,0,0,.12-.31,2,2,0,0,0,0-.33c0-.11,0-.23,0-.34a.81.81,0,0,0-.11-.32.61.61,0,0,0-.28-.24,1.15,1.15,0,0,0-.5-.09h-.19v2Zm1.64-5.08v.95h-1.93v1.29h.25l.39,0a1.72,1.72,0,0,1,.44.09,1.9,1.9,0,0,1,.43.21,1.23,1.23,0,0,1,.38.34,1.88,1.88,0,0,1,.27.53,2.52,2.52,0,0,1,.1.73,2,2,0,0,1-.1.68,1.72,1.72,0,0,1-.24.49,1.29,1.29,0,0,1-.34.32,2.26,2.26,0,0,1-.42.19l-.42.09-.41,0h-1.44v-6Z"/><path class="cls-1" d="M156.18,273.15h-1.12v-5h-.59l0,.16c0,.08,0,.18,0,.28s0,.23,0,.36,0,.25-.05.38,0,.24,0,.36,0,.21,0,.29c0,.29-.08.54-.11.75l-.1.53a3.37,3.37,0,0,1-.09.37l-.07.25-.1.26a2,2,0,0,1-.14.3,2.77,2.77,0,0,1-.22.29,1.58,1.58,0,0,1-.31.26,2,2,0,0,1-.42.18,2.19,2.19,0,0,1-.54.08l-.14-.94h0a.81.81,0,0,0,.37-.08.83.83,0,0,0,.26-.19,1,1,0,0,0,.16-.25,2.08,2.08,0,0,0,.1-.24c0-.13.09-.29.13-.47s.08-.38.11-.58.07-.39.1-.57.05-.33.07-.44,0-.21,0-.33,0-.25,0-.39,0-.28,0-.42,0-.29.05-.43,0-.27,0-.39,0-.24,0-.33h2.61Z"/><path class="cls-1" d="M159.74,270.7l-.43-2.43s0-.06,0-.08a.44.44,0,0,0,0-.1,1.49,1.49,0,0,0,0-.17c0-.08,0-.19,0-.33,0,.11,0,.19,0,.27s0,.14,0,.2l0,.14a.5.5,0,0,0,0,.12l-.41,2.38Zm.36-3.59,1.18,6h-1.1l-.28-1.5h-1.37l-.28,1.5h-1.1l1.17-6Z"/><path class="cls-1" d="M165.53,271.88a1.59,1.59,0,0,1-.06.3,2.19,2.19,0,0,1-.12.33,2.61,2.61,0,0,1-.2.3,1,1,0,0,1-.29.26,1.4,1.4,0,0,1-.39.18,1.7,1.7,0,0,1-.53.07,1.75,1.75,0,0,1-.7-.13,1.54,1.54,0,0,1-.52-.35,2,2,0,0,1-.37-.52,4.27,4.27,0,0,1-.23-.66,4.12,4.12,0,0,1-.12-.73,6.34,6.34,0,0,1,0-.76c0-.2,0-.42,0-.65a5.74,5.74,0,0,1,.09-.71,3.73,3.73,0,0,1,.21-.67,2,2,0,0,1,.35-.58,1.78,1.78,0,0,1,.54-.39,1.82,1.82,0,0,1,.77-.15,2.54,2.54,0,0,1,.41,0,1.51,1.51,0,0,1,.32.11,1.26,1.26,0,0,1,.23.13l.17.14a1.75,1.75,0,0,1,.16.2,2.75,2.75,0,0,1,.15.25,1.41,1.41,0,0,1,.1.31,1.58,1.58,0,0,1,0,.38v.06l-1,.09a.73.73,0,0,0-.06-.3.65.65,0,0,0-.13-.23.6.6,0,0,0-.21-.14.51.51,0,0,0-.25-.05.57.57,0,0,0-.32.09.84.84,0,0,0-.22.27,1.88,1.88,0,0,0-.14.38c0,.14-.05.3-.07.46l0,.48v1a4.24,4.24,0,0,0,0,.51,3,3,0,0,0,.08.45,1.31,1.31,0,0,0,.14.38.78.78,0,0,0,.23.25.59.59,0,0,0,.34.09.42.42,0,0,0,.18,0,.53.53,0,0,0,.2-.12.8.8,0,0,0,.17-.22,1.35,1.35,0,0,0,.12-.34Z"/><polygon class="cls-1" points="169.79 267.19 169.79 268.14 168.43 268.14 168.43 273.15 167.32 273.15 167.32 268.14 165.97 268.14 165.97 267.19 169.79 267.19"/><path class="cls-1" d="M172,267.19v2.1c0,.15,0,.32,0,.52s0,.44,0,.7,0,.57-.06.92a3,3,0,0,1,.12-.36c0-.13.09-.26.14-.38s.09-.25.13-.36a2.85,2.85,0,0,1,.12-.29l1.2-2.85h1.11v6h-1.12v-1.7c0-.13,0-.27,0-.42s0-.32,0-.52,0-.43,0-.69,0-.57.07-.92c0,0,0,.1-.07.18a1.44,1.44,0,0,1-.09.24c0,.09-.06.19-.1.28l-.09.28a1.86,1.86,0,0,0-.09.24l-.07.17L172,273.15h-1.11v-6Z"/><path class="cls-2" d="M177.8,71.86a15.46,15.46,0,0,0,10.3-3.55,12.35,12.35,0,0,0,3.09-4.18c2.57-5.95-.62-7.21-2.24-6.06-.83.58-1,1.28-1.3,2.36a17.06,17.06,0,0,1-9.94,11,.22.22,0,0,0,.09.42"/><path class="cls-2" d="M110.06,195.68c11.37-7.27,44.55-24.76,47.37-30.7,1.51-3.18.91-7.64-.11-10.7a.24.24,0,0,1,.06-.23.21.21,0,0,1,.23-.05c3.17,1.09,7.07,8.09,5.53,11.81,1.89-2,11.65-.89,12.16,3.8a.24.24,0,0,1-.07.18.2.2,0,0,1-.18.06c-10.27-1.14-13.82,2.22-22.78,5.88-4.67,1.91-33.15,16.14-42,20.34a.22.22,0,0,1-.29-.1.21.21,0,0,1,.07-.29"/><path class="cls-2" d="M171.33,159.67c-1.7-2-3.7-6.75-2.92-8.91a.92.92,0,0,1,.5-.51c2.5-1.22,4.93-1.33,9.05-4.14,4.48-3.06,6.19-8.5,3.28-6.36-7.62,5.6-15.26,4.76-22.21-1.22a.23.23,0,0,0-.34.06c-3.66,6.58,4.36,21.5,12.48,21.45a.22.22,0,0,0,.19-.13.21.21,0,0,0,0-.24"/><path class="cls-2" d="M164.35,97.9c3.6,3.64,10.9,3.56,14.91,1.57a12.78,12.78,0,0,0,7.52-11.85c.06-16.32-20.12-14.13-19.71-4.65a.23.23,0,0,0,.15.2.22.22,0,0,0,.24-.06c1.8-2.06,5.51-2.56,8,1C177.93,89.7,165.32,99,158.24,84a.21.21,0,0,0-.26-.12.22.22,0,0,0-.15.24,36.39,36.39,0,0,0,1.27,4.86c1.32,4.19,3.2,5.64,4.29,10.15,1.24,5.18-.31,9.42-1.73,14.3-2.76,6.8-6.09,17.28.71,22.76,4.36,3.52,11.11,2.23,15.3-.87,5.82-4.31,3.9-11.58.66-13.35-4.77-2.61-10,1.88-5.68,4.87,1.71,1.2,2.41.95,2.37,2.74-.12,5.85-8.52,9.28-9.3.82-.33-3.61.13-4,1-6.37,1.26-3.56,2.57-5.44,2.66-9.49a30.83,30.83,0,0,0-5-16.59"/><path class="cls-2" d="M192.1,110.76c1.15-.81,2-.8,2.6.63,1.57,3.61-6.55,5.35-10,3.84-.79-.35-1.16-.81.05-.87,3.41-.17,4.65-1.69,7.38-3.6"/><path class="cls-2" d="M174.07,118.46c3.72-.29,5.15-6.19,5.32-9.11,1,.3,4.07.78,8.87-2,5.77-3.32,8.36-9.86,8.13-16.48a.22.22,0,0,0-.43-.06c-3,8.85-13.73,17.39-23.09,12.74a.23.23,0,0,0-.27.06.23.23,0,0,0,0,.27c3.32,4.63,2.53,11.56,1.26,14.25a.22.22,0,0,0,0,.21.21.21,0,0,0,.2.1"/><path class="cls-2" d="M197.76,105.91a1.91,1.91,0,1,0,1.92,1.91,1.92,1.92,0,0,0-1.92-1.91"/><path class="cls-2" d="M157.49,118.74a11.41,11.41,0,0,0,.53-3.31c.31-3.22,1.24-6.58,1.77-9.6,1-5.76,0-9-2.18-13.94-1-2.28-1,0-1,1.1.12,4.29-.38,6.31-.64,10.57s-.15,10.62,1.05,15.09a3.34,3.34,0,0,0,.43.09"/><path class="cls-2" d="M110.05,73.1c3.69-6.41,12.88-18.6,28.58-16.8,12.31,2.12,21.56,11.75,22.56,24.23a.21.21,0,0,0,.23.2c3.3-.18,7.43-7.48,6.61-10.43a.22.22,0,0,1,0-.21.24.24,0,0,1,.2-.07c6.81.8,15.22-5.24,13.81-12.57a.21.21,0,0,0-.16-.17.23.23,0,0,0-.22.06c-12.37,13.07-25.25-14.4-48-10.44-14.17,2.48-24.12,11-24.15,26.07a.26.26,0,0,0,.19.24.24.24,0,0,0,.28-.11"/><path class="cls-2" d="M129.58,67.32a2,2,0,1,0,2,2,2,2,0,0,0-2-2"/><path class="cls-2" d="M113.44,73.54c2.71-1.45,14.61-15.07,33.63-3.23,3.7,1.92,1.73-3.94-2.22-6.62-9.79-7.14-26.15,1.47-31.41,9.85"/><path class="cls-2" d="M158.18,50.57a82.55,82.55,0,0,0,10.07,5.61,14.85,14.85,0,0,0,7.7,1c3.84-.81,5.15-4.19,3.9-6.25-2.18-3.59-1.58,1.13-5.66,2.78-5.81,2.35-12.41-1.64-15.81-3.45a.19.19,0,0,0-.2.32"/><path class="cls-2" d="M130.65,41.06A11.33,11.33,0,0,0,137,40.7a.36.36,0,0,1,.42.12.38.38,0,0,1,0,.43A11.24,11.24,0,0,1,128,46.61h-.1a11.17,11.17,0,0,1-5.59-1.49.37.37,0,0,1-.19-.32.39.39,0,0,1,.18-.33,10.76,10.76,0,0,0,4.4-5.22,10.61,10.61,0,0,0,.75-4,10.86,10.86,0,0,0-.76-4,.38.38,0,0,1,.61-.41,11.2,11.2,0,0,1,3.58,8.22,10.51,10.51,0,0,1-.18,2"/><path class="cls-2" d="M134.57,34.75a1.87,1.87,0,1,0,1.87,1.87,1.87,1.87,0,0,0-1.87-1.87"/><path class="cls-2" d="M191.89,68.77a1.92,1.92,0,1,0,1.91,1.92,1.92,1.92,0,0,0-1.91-1.92"/><path class="cls-2" d="M102.12,66.25a2.88,2.88,0,1,1-2.88,2.88,2.88,2.88,0,0,1,2.88-2.88"/><path class="cls-2" d="M101.94,51.25A9.32,9.32,0,0,0,90.74,50a.27.27,0,0,0-.12.26.25.25,0,0,0,.19.2,17.14,17.14,0,0,1,8.85,5.38,16.78,16.78,0,0,1,2.24,3.23.24.24,0,0,0,.22.13.25.25,0,0,0,.22-.13,17.18,17.18,0,0,1,11.09-8.61.25.25,0,0,0,.19-.2.27.27,0,0,0-.12-.26,9.33,9.33,0,0,0-11.21,1.27.26.26,0,0,1-.35,0"/><path class="cls-2" d="M26.44,71.86a15.46,15.46,0,0,1-10.3-3.55A12.38,12.38,0,0,1,13,64.13c-2.56-5.95.62-7.21,2.25-6.06.83.58,1,1.28,1.3,2.36a17.06,17.06,0,0,0,9.94,11,.22.22,0,0,1,.12.24.23.23,0,0,1-.21.18"/><path class="cls-2" d="M94.18,195.68c-11.37-7.27-44.55-24.76-47.37-30.7-1.51-3.18-.91-7.64.1-10.7a.21.21,0,0,0,0-.23.22.22,0,0,0-.23-.05c-3.17,1.09-7.08,8.09-5.53,11.81-1.89-2-11.65-.89-12.16,3.8a.21.21,0,0,0,.07.18.2.2,0,0,0,.18.06C39.46,168.71,43,172.07,52,175.73c4.68,1.91,33.16,16.14,42,20.34a.22.22,0,0,0,.22-.39"/><path class="cls-2" d="M32.91,159.67c1.7-2,3.7-6.75,2.92-8.91a.92.92,0,0,0-.5-.51c-2.5-1.22-4.93-1.33-9-4.14-4.48-3.06-6.2-8.5-3.28-6.36,7.62,5.6,15.26,4.76,22.2-1.22a.26.26,0,0,1,.19-.05.19.19,0,0,1,.15.11c3.67,6.58-4.36,21.5-12.47,21.45a.22.22,0,0,1-.16-.37"/><path class="cls-2" d="M39.88,97.9c-3.59,3.64-10.9,3.56-14.9,1.57a12.78,12.78,0,0,1-7.52-11.85C17.4,71.3,37.58,73.49,37.16,83a.22.22,0,0,1-.14.2.22.22,0,0,1-.24-.06c-1.8-2.06-5.51-2.56-8.06,1C26.3,89.7,38.91,99,46,84a.23.23,0,0,1,.27-.12.22.22,0,0,1,.15.24,36.39,36.39,0,0,1-1.27,4.86c-1.32,4.19-3.2,5.64-4.29,10.15-1.24,5.18.31,9.42,1.73,14.3,2.76,6.8,6.08,17.28-.71,22.76-4.36,3.52-11.12,2.23-15.3-.87-5.82-4.31-3.91-11.58-.66-13.35,4.77-2.61,10,1.88,5.68,4.87-1.71,1.2-2.41.95-2.38,2.74.13,5.85,8.53,9.28,9.3.82.33-3.61-.12-4-1-6.37-1.27-3.56-2.58-5.44-2.66-9.49a30.82,30.82,0,0,1,5-16.59"/><path class="cls-2" d="M12.14,110.76c-1.15-.81-2-.8-2.6.63-1.57,3.61,6.55,5.35,10,3.84.79-.35,1.15-.81-.05-.87-3.42-.17-4.66-1.69-7.38-3.6"/><path class="cls-2" d="M30.17,118.46c-3.73-.29-5.15-6.19-5.32-9.11-1,.3-4.07.78-8.87-2-5.77-3.32-8.36-9.86-8.13-16.48A.21.21,0,0,1,8,90.68a.23.23,0,0,1,.24.15c3,8.85,13.73,17.39,23.09,12.74a.22.22,0,0,1,.26.06.21.21,0,0,1,0,.27c-3.31,4.63-2.52,11.56-1.26,14.25a.2.2,0,0,1,0,.21.21.21,0,0,1-.2.1"/><path class="cls-2" d="M6.47,105.91a1.91,1.91,0,1,1-1.91,1.91,1.92,1.92,0,0,1,1.91-1.91"/><path class="cls-2" d="M46.75,118.74a11.4,11.4,0,0,1-.54-3.31c-.3-3.22-1.23-6.58-1.77-9.6-1-5.76.06-9,2.19-13.94,1-2.28,1,0,1,1.1-.12,4.29.37,6.31.64,10.57s.14,10.62-1,15.09a3.73,3.73,0,0,1-.43.09"/><path class="cls-2" d="M94.19,73.1C90.5,66.69,81.31,54.5,65.61,56.3,53.29,58.42,44.05,68.05,43.05,80.53a.22.22,0,0,1-.24.2c-3.29-.18-7.42-7.48-6.6-10.43a.23.23,0,0,0-.05-.21A.21.21,0,0,0,36,70c-6.81.8-15.23-5.24-13.81-12.57a.22.22,0,0,1,.15-.17.24.24,0,0,1,.23.06c12.37,13.07,25.25-14.4,48-10.44,14.17,2.48,24.11,11,24.15,26.07a.26.26,0,0,1-.19.24.24.24,0,0,1-.28-.11"/><path class="cls-2" d="M74.66,67.32a2,2,0,1,1-2,2,2,2,0,0,1,2-2"/><path class="cls-2" d="M90.8,73.54c-2.72-1.45-14.61-15.07-33.63-3.23-3.7,1.92-1.73-3.94,2.22-6.62,9.79-7.14,26.15,1.47,31.41,9.85"/><path class="cls-2" d="M46.06,50.57A83.3,83.3,0,0,1,36,56.18a14.85,14.85,0,0,1-7.7,1c-3.85-.81-5.15-4.19-3.9-6.25C26.57,47.33,26,52.05,30,53.7c5.81,2.35,12.42-1.64,15.82-3.45a.19.19,0,0,1,.2.32"/><path class="cls-2" d="M73.58,41.06a11.09,11.09,0,0,1-2.53.29,11.3,11.3,0,0,1-3.79-.65.36.36,0,0,0-.42.12.38.38,0,0,0,0,.43,11.24,11.24,0,0,0,9.48,5.36h.1A11.11,11.11,0,0,0,82,45.12a.38.38,0,0,0,0-.65,10.8,10.8,0,0,1-4.39-5.22,10.74,10.74,0,0,1,0-8,.38.38,0,0,0-.14-.45.36.36,0,0,0-.47,0,11.2,11.2,0,0,0-3.58,8.22,11.43,11.43,0,0,0,.17,2"/><path class="cls-2" d="M69.66,34.75a1.87,1.87,0,1,1-1.86,1.87,1.87,1.87,0,0,1,1.86-1.87"/><path class="cls-2" d="M12.35,68.77a1.92,1.92,0,1,1-1.91,1.92,1.92,1.92,0,0,1,1.91-1.92"/><path class="cls-2" d="M14.12,80.39c-.85,1.12-1.65,1.36-2.68.18-2.62-3,4.8-7.19,8.54-6.68.88.11,1,.46.07.82-3.2,1.2-3.92,3-5.93,5.68"/><path class="cls-2" d="M27.27,126.83c1.05-1.81,3.13-1.6,3.29-3-.89-.85-6.49-.28-5,5.93.19.82.56,2.33,1.49,2.55.09-1.78-.82-3.66.25-5.52"/><path class="cls-2" d="M177,126.83c-1.05-1.81-3.13-1.6-3.29-3,.89-.85,6.49-.28,5,5.93-.19.82-.56,2.33-1.49,2.55-.1-1.78.82-3.66-.25-5.52"/><path class="cls-2" d="M190.12,80.39c.85,1.12,1.65,1.36,2.67.18,2.63-3-4.79-7.19-8.53-6.68-.88.11-1,.46-.07.82,3.2,1.2,3.92,3,5.93,5.68"/><path class="cls-2" d="M57.57,155.23l-.42-66.89h0a8,8,0,0,1,2.46-5.74,8.71,8.71,0,0,1,6-2.44h72.54a8.6,8.6,0,0,1,6,2.42,8.13,8.13,0,0,1,2.51,5.81l.43,66.83a8,8,0,0,1-1,3.93,8.45,8.45,0,0,1-2.91,3l-36.28,22.68a8.56,8.56,0,0,1-9.26,0l-36.2-22.68a8.2,8.2,0,0,1-2.87-3,8.09,8.09,0,0,1-1-4m8.1-78.47h72.48a12,12,0,0,1,8.39,3.39,11.59,11.59,0,0,1,3.53,8.24l.42,66.83a11.11,11.11,0,0,1-1.41,5.61A11.78,11.78,0,0,1,145,165l-36.28,22.68a12,12,0,0,1-12.86,0L59.66,165a11.66,11.66,0,0,1-4-4.17,11.45,11.45,0,0,1-1.44-5.61c-.15-22.29-.43-44.62-.43-66.9h0a11.39,11.39,0,0,1,3.51-8.18,12.07,12.07,0,0,1,8.34-3.4Z"/><path class="cls-3" d="M98.29,183.61l.09,0c.2.13.4.24.61.35l14-4.61,2.13-1.33Zm-2.76-1.73.66.41,25.7-8.44,2.13-1.33Zm-2.76-1.73.67.42,37.33-12.27L132.9,167ZM90,178.42l.66.42,49-16.09,2.13-1.34Zm-2.76-1.72.66.41L145,158.36a5.4,5.4,0,0,0,.33-.74ZM84.5,175l.66.41,60.57-19.9v-.63Zm42.79-16.06,18.42-6.06v-.63l-18.42,6.05ZM81.74,173.24l.67.42L120.79,161a1.72,1.72,0,0,1-.45-.48Zm45.55-17,18.41-6.05v-.63l-18.4,6ZM79,171.51l.66.42,40.42-13.28V158Zm48.3-17.87,18.39-6V147l-18.39,6Zm-18.93,6.22L120.07,156v-.63l-11.69,3.84v.38A2.11,2.11,0,0,1,108.36,159.86Zm-32.13,9.93.66.41,26.79-8.8h-1.92ZM127.29,151l18.37-6v-.63l-18.37,6ZM108,157.34l12.06-4v-.63l-12.58,4.13A1.76,1.76,0,0,1,108,157.34ZM73.47,168.06l.66.41,22.17-7.28a1.84,1.84,0,0,1-.55-.45Zm53.82-19.69,18.36-6v-.63l-18.35,6Zm-24.71,8.12,17.49-5.74v-.64l-17.49,5.75Zm-13.29,4.37,6.06-2v-.64l-5.61,1.85A1.86,1.86,0,0,1,89.29,160.86Zm-18.58,5.47.66.41,16.29-5.35H85.75Zm61.35-22.16,13.57-4.46v-.63l-13.47,4.43v.07A1.92,1.92,0,0,1,132.06,144.17Zm-4.77,1.57,1.13-.37h-1.13Zm-24.71,8.12,17.49-5.75v-.63l-12,4a1.8,1.8,0,0,1-1.43.71h-.74l-3.27,1.08Zm-13.16,4.32,5.93-2v-.63l-6.12,2ZM68,164.6l.67.42,15.51-5.1-.19-.57Zm64-23,13.65-4.49v-.63l-14,4.62A1.92,1.92,0,0,1,132,141.57Zm-23.58,7.75,11.69-3.84v-.11h-1.59l-10.16,3.34a1.84,1.84,0,0,1,.06.47ZM88.64,155.8l6.71-2.2V153l-6.9,2.26Zm-10,3.29,4.71-1.55-.19-.57-4.28,1.41ZM65.2,162.87l.66.42,6.33-2.08a1.78,1.78,0,0,1-.57-.45Zm61.68-22.27,18.72-6.15v-.63L125,140.6Zm-20.65,6.79,9.16-3a1.62,1.62,0,0,1-.17-.58l-10.91,3.59Zm-18.38,6,7.5-2.46v-.64l-7.69,2.53Zm-8.24,2.71,2.94-1-.19-.57-2.51.83Zm-17.17,5,.66.41,8.25-2.71.23-.71Zm56.43-20.55,26.71-8.77v-.63l-28.64,9.4h1.93Zm-10.55,3.47,7-2.3a1.84,1.84,0,0,1,.66-.85l-7.59,2.5v.18A1.78,1.78,0,0,1,108.32,144.07ZM102.58,146l1.7-.56h-1.7Zm-15.52,5.1,8.29-2.73v-.63l-8.48,2.79Zm-6.47,2.12,1.17-.38-.19-.57-.74.24Zm-20.34,6c.13.18.27.34.41.5l11.67-3.84.24-.7Zm47.87-17.73,37.44-12.3v-.63L125,135.32l-.36.18a2.9,2.9,0,0,1-1.09.29L107.69,141A1.83,1.83,0,0,1,108.12,141.5Zm-21.85,7.18,9.08-3v-.63l-9.27,3ZM59.16,157c.05.19.11.38.17.57l14-4.59.24-.71Zm70.5-25.17,15.89-5.22v-.63l-15.11,5C130.18,131.21,129.92,131.5,129.66,131.79Zm-26.91,8.84,18.26-6a2.41,2.41,0,0,1-.3-.48l0,0-19.79,6.5.21,0Zm-17.27,5.68,9.87-3.25v-.63l-10.06,3.31ZM58.93,154.4V155L74.29,150l.24-.71Zm73.23-26.07,13.37-4.39v-.63l-13,4.26C132.43,127.83,132.3,128.08,132.16,128.33Zm-12.58,4.14.91-.3a3,3,0,0,1,.27-.72l-.09,0-.09.09A12.12,12.12,0,0,1,119.58,132.47ZM84.69,143.93l26.06-8.56a11.84,11.84,0,0,1-1.46-.15L84.5,143.36Zm-25.77,7.84v.63L75.28,147l.23-.7Zm74.55-26.5,12-4v-.63l-11.83,3.89Zm-10.79,3.54,2.4-.78a11.2,11.2,0,0,0,.8-.9l-2.79.92C123,128.31,122.83,128.56,122.68,128.81Zm-38.8,12.75,22.21-7.29c-.27-.12-.53-.24-.78-.38l-21.82,7.17A1.73,1.73,0,0,1,83.88,141.56Zm-25,7.58v.63l17.35-5.7.23-.71Zm52.8-20-.88.29.54,0c.22,0,.43,0,.64,0Zm22.41-6.73,11.39-3.75v-.63l-11.3,3.72C134.16,122,134.14,122.21,134.11,122.43Zm-10.17,3.34,3.46-1.14a6.52,6.52,0,0,0,.29-.73l-3.58,1.18C124.06,125.31,124,125.54,123.94,125.77ZM58.88,146.51v.63L77.58,141a1.78,1.78,0,0,1,1.12-.4h.09l24.48-8-.55-.45Zm75.38-26.77,11.22-3.68v-.63l-11.24,3.69C134.25,119.33,134.26,119.53,134.26,119.74ZM124.38,123l3.86-1.27c0-.22,0-.43.07-.65l-3.92,1.28v.38A2.26,2.26,0,0,1,124.38,123Zm-8,2.62,1.53-.5a5.55,5.55,0,0,0,.25-.72l-2.16.71.17.22A3.06,3.06,0,0,1,116.4,125.61Zm-8.69,2.86,2.82-.93-.33-.52-3.12,1A5.39,5.39,0,0,0,107.71,128.47Zm-17.38,5.71,10.93-3.59q-.21-.26-.39-.51l-10.3,3.39A3,3,0,0,1,90.33,134.18Zm-31.46,9.7v.63l26.39-8.67-2,0ZM134,117.19l11.44-3.76v-.63l-11.55,3.79C134,116.79,134,117,134,117.19Zm-9.78,3.21,4.07-1.33c0-.21-.05-.41-.08-.61l-4.09,1.34C124.18,120,124.21,120.2,124.24,120.4Zm-9.27,3,3.52-1.16c0-.21,0-.41,0-.62l-3.75,1.23C114.79,123.09,114.88,123.27,115,123.45Zm-9.39,3.08,3.73-1.22h-1.93l-2.14.7C105.35,126.19,105.46,126.36,105.58,126.53Zm-15,4.93,9.24-3c-.1-.18-.19-.36-.28-.55l-9,3,0,.37Zm-31.73,9.79v.64l18.3-6a2.87,2.87,0,0,1-1-.29Zm74.57-26.5,12-4v-.63l-12.22,4ZM123.63,118l4.17-1.37c-.07-.19-.13-.38-.21-.57l-4.17,1.38C123.49,117.59,123.57,117.78,123.63,118Zm-9.58,3.15,4-1.31a5.38,5.38,0,0,0-.24-.55l-4,1.33A3.11,3.11,0,0,1,114.05,121.12Zm-23.56,7.74,8.37-2.75c-.06-.19-.12-.39-.17-.58l-8.19,2.69C90.49,128.43,90.49,128.65,90.49,128.86Zm-31.66,9.77v.63L74.73,134a2.58,2.58,0,0,1-.16-.56v0Zm73.63-26.2,13-4.26v-.63l-13.25,4.35C132.28,112.07,132.37,112.25,132.46,112.43Zm-9.9,3.26,4.19-1.38c-.11-.18-.22-.35-.34-.52l-4.18,1.37Zm-11.28,3.7,5.4-1.77a4,4,0,0,0-.28-.3l-.18-.18-6.87,2.25Zm-20.67,6.79,7.74-2.54c0-.2,0-.41,0-.62l-7.62,2.51C90.65,125.75,90.63,126,90.61,126.18ZM80.2,129.6l4.39-1.44c0-.21,0-.43,0-.64L80.21,129C80.21,129.18,80.2,129.39,80.2,129.6ZM58.82,136v.63l15.51-5.1,0-.62Zm72.33-25.77,14.26-4.69v-.63l-14.64,4.81ZM121,113.57l4.13-1.36-.06-.06c-.14-.14-.28-.28-.43-.41l-4.1,1.35,0,0Zm-17.73,5.82,10.91-3.58a7.32,7.32,0,0,0-.93-.33l-11.9,3.91Zm-12.29,4,7.67-2.52a3,3,0,0,1,.75-.88l-8.3,2.73Zm-10.64,3.5,4.42-1.45.06-.66-4.42,1.46C80.37,126.49,80.34,126.71,80.33,126.93ZM58.8,133.37V134l15.5-5.09c0-.21,0-.43,0-.64Zm70.63-25.21,16-5.25v-.63L129,107.69a3.83,3.83,0,0,1,.29.28Zm-10.63,3.49,3.93-1.29c-.24-.14-.48-.27-.74-.39l-3.83,1.26Zm-27.21,8.94,16.32-5.36H106l-14.2,4.67C91.72,120.13,91.65,120.36,91.59,120.59Zm-10.92,3.59,4.43-1.45.12-.67-4.44,1.45C80.74,123.74,80.7,124,80.67,124.18Zm-21.89,6.56v.63l15.66-5.14c0-.22,0-.44.07-.66Zm68.46-24.49,18.14-6v-.64l-18.76,6.17Zm-11.57,3.8,3.2-1a10.87,10.87,0,0,0-1.51-.14l-2.69.88C115,109.83,115.34,109.93,115.67,110.05Zm-23.15,7.61,9.18-3a3.2,3.2,0,0,1-.5-.47l-8.41,2.76Zm-11.27,3.7,4.42-1.46.18-.69-4.42,1.46Zm-22.48,6.75v.63l16-5.26.12-.67Zm72.52-25.83,14.07-4.62V97l-13.51,4.44A3,3,0,0,1,131.29,102.28Zm-6.91,2.27,4.13-1.36h-1.92l-3,1Zm-14.54,4.78,2-.67a3.12,3.12,0,0,1-.49-.47l-3.48,1.14Zm-16,5.26,6.63-2.17.08-.4c0-.09,0-.19,0-.28l-6.38,2.1C94.06,114.09,93.94,114.34,93.82,114.59Zm-11.7,3.85L86.5,117c.07-.24.15-.47.24-.71l-4.36,1.43-.24.68Zm-23.37,7v.64l16.59-5.46c.06-.22.11-.45.17-.68Zm73.51-26.15L145.35,95V94.4l-13,4.27Zm-11.93,3.92.17-.06H120Zm-12.77,4.2,3.16-1a3.27,3.27,0,0,1,0-.54l0-.11-3.07,1Zm-12,3.93,5.45-1.79.15-.68-5.09,1.67Zm-12.25,4,4.27-1.4.24-.58.08-.16-4.24,1.39Zm-24.61,7.46v.63l17.39-5.72c.07-.23.14-.47.22-.7Zm73.9-26.29,12.7-4.17v-.63l-12.61,4.14Zm-24.45,8,2.92-1,.1-.67-2.87,1ZM98,108l3.64-1.2.15-.68-3.07,1Zm-13,4.28,4.07-1.34c.14-.26.27-.52.42-.77l-4,1.32C85.31,111.7,85.15,112,85,112.23Zm-26.28,8v.63l18.46-6.07.3-.73ZM133,93.82l12.31-4v-.63l-12.22,4Zm-10.53,3.46,4.3-1.41,0-.4H126l-5.5,1.81Zm-13.67,4.49,2.73-.9.1-.66-2.68.88Zm-7.26,2.39.74-.25.15-.68-.15,0a3,3,0,0,1-.57.71C101.65,104.05,101.59,104.1,101.54,104.16Zm-14.29,4.69L91,107.63c.17-.28.35-.54.53-.81L87.9,108l-.12.18ZM58.7,117.6v.63l19.86-6.52L79,111Zm74.16-26.37,12.32-4a5.45,5.45,0,0,0-.14-.58l-12.51,4.11A3.51,3.51,0,0,1,132.86,91.23Zm-23.44,7.7L113,97.75a3,3,0,0,1,1.42-.47l5.46-1.79H118l-8.38,2.75Zm-6.83,2.25.31-.11.15-.68-.65.22A2.73,2.73,0,0,1,102.59,101.18Zm-14.22,4.67,3.2-1H89.63l-1.42.47A2.38,2.38,0,0,1,88.37,105.85ZM58.68,115v.63l21.67-7.12c.16-.27.33-.53.5-.8Zm71.25-25.41,14.32-4.71c-.11-.17-.23-.35-.35-.51L128,89.57Zm-19.88,6.53,1.75-.57h-1.63Zm-9.18,3,2.65-.87.15-.69-4,1.32h0A2.83,2.83,0,0,1,100.87,99.11Zm-42.2,13.23V113l24-7.89c.06-.09.13-.17.2-.26H81.54ZM92,98.74l-.46.16h.61l0,0A1.14,1.14,0,0,1,92,98.74Zm29.8-9.16,20.5-6.73a7.39,7.39,0,0,0-.66-.42L119.9,89.59Zm-24.19,8,6.5-2.13.15-.68-5.71,1.87Zm-39,12.18v.64l16.74-5.5H73.45Zm55.11-20.1,24.56-8.07H136.4l-24.59,8.08Zm-12.45,4.08,3.46-1.13.13-.61a.64.64,0,0,1,0-.07L101.59,93A2.76,2.76,0,0,1,101.31,93.69ZM85.43,98.91,91.29,97a2.74,2.74,0,0,1,0-.64l-7.82,2.57Zm-26.8,8.18v.63l10.06-3.31a3.38,3.38,0,0,1-.55-.45ZM101.39,91l28.92-9.5h-1.93l-27.3,9A2.75,2.75,0,0,1,101.39,91Zm-24,7.91,11.25-3.7H86.66L75.4,98.94Zm-18.72,5.52v.63l8.73-2.87c0-.1,0-.21,0-.31v-.32ZM98.57,89.33l23.72-7.8h-1.92l-23.72,7.8ZM73.25,97.65l7.32-2.41H78.64L73.25,97ZM58.6,101.83v.63l8.73-2.87V99Zm31.95-12.5,23.73-7.8h-1.93l-23.72,7.8Zm-32,9.87v.63L67.33,97v-.63Zm24-9.87,23.72-7.8h-1.93l-23.72,7.8Zm-24,7.24v.63l8.76-2.88v-.63Zm15.95-7.24,23.72-7.8H96.32L72.6,89.33Zm-16,4.61v.64l8.85-2.91a2.85,2.85,0,0,1,.25-.71Zm0-2.62V92L90.23,81.53H88.3ZM59,85.89a6.08,6.08,0,0,0-.24.72L74.2,81.53H72.27Zm-.48,2.8,21.77-7.16h1.92L58.52,89.32Z"/><path class="cls-2" d="M78.7,142.34a.07.07,0,0,0,0,0l-5.71,17.19v0s0,.06,0,.06h3.59a.07.07,0,0,0,.06,0l4.61-13.9,4.62,13.9s0,0,0,0H88a.05.05,0,0,0,0-.07l-5.71-17.21a.07.07,0,0,0-.06,0Zm51.67,0H117a0,0,0,0,0,0,0v1.19a0,0,0,0,0,0,0h4.81v16a.06.06,0,0,0,.06.06h3.64a.06.06,0,0,0,.06-.06v-16h4.81a0,0,0,0,0,0,0v-1.19A0,0,0,0,0,130.37,142.34ZM95.1,97.62l4.48-4.47a1.23,1.23,0,0,0-.87-2.09H70.29a1.22,1.22,0,0,0-1.22,1.23v9.62a1.21,1.21,0,0,0,1.21,1.22h.15l26.31-.08-.52.57a39.2,39.2,0,0,0-6.78,10.5,37.16,37.16,0,0,0-3.11,15.56h0c0,.55,0,1.09.06,1.63l0,.36-7.88.05,0-.34c0-.49,0-1,0-1.46a36.46,36.46,0,0,1,8-22.82,1.22,1.22,0,1,0-1.91-1.52A39.08,39.08,0,0,0,76,129.92c0,.53,0,1.07,0,1.61a14.8,14.8,0,0,0,.2,1.63,1.22,1.22,0,0,0,1.2,1l10.24-.07a1.22,1.22,0,0,0,1.19-1.24c0-.52,0-1-.07-1.55s-.06-1.11-.07-1.67a34.79,34.79,0,0,1,2.92-14.54,37.13,37.13,0,0,1,8.86-12.37,1.23,1.23,0,0,0,.39-.9,1.2,1.2,0,0,0-1.22-1.21l-28.2.08V93.51H95.76L93.37,95.9a1.22,1.22,0,0,0,1.73,1.72Zm27.56,25.06h0v-.34a11.29,11.29,0,0,0-11-11.28H105l3.79-17.28,20-.06L128.1,99H114.61a1.24,1.24,0,0,0-1.22,1.18l-.92,5.94a1.21,1.21,0,0,0,1,1.39,1.11,1.11,0,0,0,.48,0,13.39,13.39,0,0,1,1.56-.28,13.82,13.82,0,0,1,1.58-.1,13,13,0,0,1,5.71,24.64,1.21,1.21,0,0,0,1.07,2.18,15.41,15.41,0,0,0-6.78-29.26,13.07,13.07,0,0,0-1.53.08l-.44,0,.52-3.34h13.5a1.21,1.21,0,0,0,1.21-1.06l1-7.72a.86.86,0,0,0,0-.16,1.22,1.22,0,0,0-1.21-1.22l-22.32.07a1.22,1.22,0,0,0-1.28,1l-4.25,19.37h0l-.08.34a2.11,2.11,0,0,0,0,.26,1.21,1.21,0,0,0,1.21,1.21h8.23a8.84,8.84,0,0,1,8.52,8.83v.34h0a8.86,8.86,0,0,1-15.11,5.94,9.06,9.06,0,0,1-2.49-4.64l-.08-.41h8l.08.22a16.35,16.35,0,0,0,.75,1.65,15,15,0,0,0,1.63,2.49,1.22,1.22,0,1,0,1.9-1.53,11.94,11.94,0,0,1-1.37-2.09,12.57,12.57,0,0,1-.94-2.31,1.21,1.21,0,0,0-1.17-.87H101.23a1.21,1.21,0,0,0-1.22,1.21v.17a11.32,11.32,0,0,0,22.64.17ZM97.14,142.34a.06.06,0,0,0-.06,0V159.6a.06.06,0,0,0,.06.06h9.45a.06.06,0,0,0,.06-.06v-1.18a.06.06,0,0,0-.06,0h-5.75v-8h5.75a.06.06,0,0,0,.06-.06v-1.18a.06.06,0,0,0-.06-.06h-5.75v-5.46h5.75a.06.06,0,0,0,.06-.06v-1.18a.06.06,0,0,0-.06,0h-5.72l-.09,0Z"/><path class="cls-2" d="M117.16,40.9H111l1.88-10.48L114.57,21l.66,3.73,1-1.89,1.36,7.58,1.77,9.87a4.35,4.35,0,0,1-2.2.61m-10.09,0a5.38,5.38,0,0,0-4.95,3.24,5.39,5.39,0,0,0-5-3.24H95.46v-10a2.56,2.56,0,0,0,1,.23,2.81,2.81,0,0,0,1.41-.47,2.37,2.37,0,0,0,2.83,0,2.35,2.35,0,0,0,2.82,0,2.37,2.37,0,0,0,2.83,0,2.81,2.81,0,0,0,1.41.47,2.7,2.7,0,0,0,1.06-.27v10Zm-20,0a4.45,4.45,0,0,1-2.45-.74l1.74-9.74,1.36-7.58,1,1.89L89.39,21l1.69,9.42L93,40.9Zm.27-24.68c0-.62,1.4-1.21,1.4-1.71a1.33,1.33,0,0,0-.27-.63.53.53,0,0,1,.28.07c.43.22,1,.42,1,1.06s-1.4,1.08-1.4,1.71,1.4,1.12,1.4,1.7-1.4,1.16-1.4,1.71c0,.31.35.61.7.9s-.29,1.4-.65,2.27l-.5-.95c.4-.22.88-.41.88-1s-1.4-1.08-1.4-1.71,1.4-1.12,1.4-1.7S87.35,16.77,87.35,16.22Zm13.36,12.1v1.15l-.18,0-.4-.78-.68-.12C99.83,28.5,100.26,28.4,100.71,28.32Zm3.07.29a5.89,5.89,0,0,1-1.09.52l-1.3.23V28.22a9.06,9.06,0,0,1,1-.07C103.35,28.15,103.68,28.37,103.78,28.61Zm5-27.66V30a2.15,2.15,0,0,1-1.06.38,2,2,0,0,1-.81-.23c-.12-.06-.22-.13-.29-.17l-.06,0a2.23,2.23,0,0,0,.34-.44,10.83,10.83,0,0,0,.94-2l-2.48.61a4.66,4.66,0,0,0,1.57-3.51A5,5,0,0,0,103.25,20l-2-.41v-.51h.28a.09.09,0,0,0,.06,0,.06.06,0,0,0,0-.06v-.58a.09.09,0,0,0,0-.06l-.06,0h-.28V16.19l.16,0a.74.74,0,0,0,.46-.19.73.73,0,0,1,.39-.15s0,0,0,0a.59.59,0,0,1,0,.22.56.56,0,0,0,.61.54h0a1.08,1.08,0,0,0,.71-.25c.15-.13.24-.23.32-.22.38,0,.62.4,1.11.41a.66.66,0,0,0,.5-.36,2.26,2.26,0,0,0,.19-.35.08.08,0,0,0,0-.1.09.09,0,0,0-.11,0,1.47,1.47,0,0,1-.17.16.74.74,0,0,1-.35.14c-.07,0-.24-.14-.43-.31a1.18,1.18,0,0,0-.76-.35.8.8,0,0,0-.49.22.64.64,0,0,1-.38.18h0a.36.36,0,0,1-.22-.06s-.09-.11-.09-.27a1.73,1.73,0,0,0,0-.36.25.25,0,0,0-.22-.18,1,1,0,0,0-.52.23,1,1,0,0,1-.41.19.41.41,0,0,1-.27-.15l0,0v-1h-.34v4.09h-.47a.08.08,0,0,0-.07.05.06.06,0,0,0,0,.08l.44.58a.08.08,0,0,0,.07,0h0v.44C98.34,19,98,18.94,98,18.94a7.9,7.9,0,0,1,2,5.27,6.64,6.64,0,0,1-1.39,4.23l-.38-.06v-1l-1.54-.26.21,1.43.21.09.19.89-.17.09,0,.64h0a1.81,1.81,0,0,1-.7.18,2,2,0,0,1-.82-.23l-.14-.09V1Zm5.47,15.27c0-.62,1.39-1.21,1.39-1.71a1.33,1.33,0,0,0-.27-.63.51.51,0,0,1,.28.07c.43.22,1,.42,1,1.06s-1.4,1.08-1.4,1.71,1.4,1.12,1.4,1.7-1.4,1.16-1.4,1.71,1.4,1.2,1.4,1.7c0,.86-1,.88-1.29,1.37l-.19-1.06a.88.88,0,0,0,.51-.8c0-.5-1.39-1.08-1.39-1.71s1.39-1.12,1.39-1.7S114.25,16.77,114.25,16.22ZM81.66,0V36.43a5.45,5.45,0,0,0,5.43,5.43H97.17a4.44,4.44,0,0,1,4.17,2.91l.49,1.32.29.76.44-1.2.33-.88a4.45,4.45,0,0,1,4.18-2.91h10.09a5.45,5.45,0,0,0,5.42-5.43V0Z"/></g></g></svg>