<svg width="33" height="33" viewBox="0 0 33 33" fill="none" xmlns="http://www.w3.org/2000/svg">
<path d="M33 16.5C33 25.6127 25.6127 33 16.5 33C7.3873 33 0 25.6127 0 16.5C0 7.3873 7.3873 0 16.5 0C25.6127 0 33 7.3873 33 16.5Z" fill="#2773BA"/>
<path fill-rule="evenodd" clip-rule="evenodd" d="M21.7071 18.7071C21.3166 19.0976 20.6834 19.0976 20.2929 18.7071L16 14.4142L11.7071 18.7071C11.3166 19.0976 10.6834 19.0976 10.2929 18.7071C9.90237 18.3166 9.90237 17.6834 10.2929 17.2929L15.2929 12.2929C15.6834 11.9024 16.3166 11.9024 16.7071 12.2929L21.7071 17.2929C22.0976 17.6834 22.0976 18.3166 21.7071 18.7071Z" fill="white"/>
</svg>
