<svg width="25" height="25" viewBox="0 0 25 25" fill="none" xmlns="http://www.w3.org/2000/svg">
<path d="M19.6 8.4C19.05 8.65 18.5 8.8 17.85 8.9C18.45 8.5 18.95 7.95 19.2 7.25C18.6 7.6 17.95 7.85 17.3 8C16.75 7.4 15.95 7.05 15.1 7.05C13.45 7.05 12.05 8.4 12.05 10.1C12.05 10.35 12.1 10.55 12.15 10.8C9.65 10.7 7.4 9.45 5.9 7.65C5.65 8 5.5 8.5 5.5 9.05C5.5 10.1 6.05 11.05 6.85 11.55C6.35 11.55 5.9 11.4 5.5 11.15V11.2C5.5 12.65 6.55 13.9 7.95 14.15C7.7 14.2 7.45 14.25 7.15 14.25C6.95 14.25 6.75 14.25 6.6 14.2C7 15.4 8.1 16.3 9.45 16.3C8.4 17.1 7.1 17.6 5.7 17.6C5.45 17.6 5.2 17.6 5 17.55C6.2 18.5 7.8 19 9.5 19C15.05 19 18.1 14.4 18.1 10.4V10C18.7 9.55 19.2 9.05 19.6 8.4Z" fill="white"/>
</svg>
