<svg width="25" height="25" viewBox="0 0 25 25" fill="none" xmlns="http://www.w3.org/2000/svg">
<path fill-rule="evenodd" clip-rule="evenodd" d="M12.0944 17.4H13.0944C13.0944 17.4 13.3944 17.35 13.5444 17.2C13.6944 17.05 13.6944 16.75 13.6944 16.75C13.6944 16.75 13.6944 15.45 14.2944 15.25C14.8944 15.05 15.6944 16.55 16.4944 17.1C17.0944 17.55 17.5444 17.45 17.5444 17.45L19.7444 17.4C19.7444 17.4 20.8944 17.35 20.3444 16.4C20.2944 16.35 20.0444 15.75 18.6944 14.5C17.2944 13.2 17.4944 13.45 19.1444 11.2C20.1444 9.85 20.5444 9.05 20.4444 8.65C20.3444 8.3 19.5944 8.4 19.5944 8.4H17.0944C17.0944 8.4 16.8944 8.35 16.7944 8.45C16.6444 8.55 16.5944 8.7 16.5944 8.7C16.5944 8.7 16.1944 9.75 15.6944 10.65C14.5944 12.5 14.1444 12.6 13.9944 12.5C13.5944 12.25 13.6944 11.4 13.6944 10.85C13.6944 9.05 13.9944 8.3 13.1444 8.1C12.8944 8.05 12.6944 8 11.9944 8C11.0944 8 10.3444 8 9.94444 8.2C9.64444 8.35 9.44444 8.65 9.59444 8.65C9.74444 8.65 10.1444 8.75 10.3444 9C10.5444 9.45 10.5444 10.2 10.5444 10.2C10.5444 10.2 10.6944 12.35 10.1944 12.6C9.84444 12.8 9.39444 12.4 8.39444 10.7C7.89444 9.85 7.49444 8.85 7.49444 8.85C7.49444 8.85 7.44444 8.65 7.29444 8.55C7.14444 8.45 6.89444 8.4 6.89444 8.4H4.54444C4.54444 8.4 4.19444 8.4 4.04444 8.55C3.94444 8.7 4.04444 8.95 4.04444 8.95C4.04444 8.95 5.89444 13.25 7.99444 15.45C9.94444 17.55 12.0944 17.4 12.0944 17.4Z" fill="white"/>
</svg>
